<svg xmlns="http://www.w3.org/2000/svg" viewBox="0 0 220.99 220.99"><defs><style>.cls-1{fill:none;}.cls-2{fill:#37555a;}</style></defs><title>hk-iso</title><g id="Layer_2" data-name="Layer 2"><g id="Layer_1-2" data-name="Layer 1"><path class="cls-1" d="M10.38,210.61H210.61V10.38H10.38Z"/><path class="cls-2" d="M0,0V221H221V0ZM210.61,210.61H10.38V10.38H210.61Z"/><polygon class="cls-2" points="146.82 109.28 177.53 68.25 144.01 68.25 129.54 94.36 129.54 124.1 145.75 154.06 179.13 154.06 146.82 109.28"/><polygon class="cls-2" points="100.43 68.25 99.76 68.25 99.76 101.64 69.86 101.64 69.86 68.25 48.15 68.25 48.15 154.06 69.86 154.06 69.86 119.06 99.76 119.06 99.76 154.06 100.43 154.06 122.15 154.06 122.84 154.06 122.84 68.25 122.15 68.25 100.43 68.25"/></g></g></svg>