<svg xmlns="http://www.w3.org/2000/svg" viewBox="0 0 621.09 221.37"><defs><style>.cls-1{font-size:20.17px;font-family:GothamBold, Gotham Bold;letter-spacing:0.2em;}.cls-1,.cls-5{fill:#aacf37;}.cls-2{fill:#cdcaa6;}.cls-3{fill:none;}.cls-4{fill:#37555a;}</style></defs><title>hk-logo</title><g id="Layer_2" data-name="Layer 2"><g id="Layer_1-2" data-name="Layer 1"><text class="cls-1" transform="translate(259.27 217.88)">RESTAURANT &amp; DELIVERY</text><text class="cls-1" transform="translate(257.13 18.41)">THE</text><path class="cls-2" d="M287.7,99.21V77.67H272.79V99.21H256.25V44.06h16.54V64.57H287.7V44.06h16.55V99.21Z"/><path class="cls-2" d="M311.91,99.21V44.06h40.93V57.24H328.37v7.93h22v12h-22V86h24.47V99.21Z"/><path class="cls-2" d="M393.77,99.21l-2.67-9H373.86l-2.93,9H353.61l19.48-55.15h19.3l18.79,55.15ZM382.48,57.68,376.88,78h11.2Z"/><path class="cls-2" d="M414.36,99.21V44.06H431l-.17,42H448V99.21Z"/><path class="cls-2" d="M471.75,57.24v42H455.38v-42h-13V44.06h42.39V57.24Z"/><path class="cls-2" d="M523.36,99.21V77.67h-14.9V99.21H491.91V44.06h16.55V64.57h14.9V44.06h16.55V99.21Z"/><path class="cls-2" d="M287.53,170.1l-13-24v24H258V114.94h16.55V136.4l11.89-21.46H308l-19.73,26.37L309,170.1Z"/><path class="cls-2" d="M311.13,170.1V114.94h16.55V170.1Z"/><path class="cls-2" d="M362.4,128.13v42H346v-42H333V114.94h42.4v13.19Z"/><path class="cls-2" d="M401,171c-22,0-25.94-14.65-25.94-28.44s4.05-28.44,25.94-28.44c18.95,0,25.42,11.12,25.42,24H409.88c-.86-8-3.36-10.68-8.87-10.68-8.1,0-9.22,6.89-9.22,15.08s.69,15.17,9.22,15.17c5.6,0,7.84-2.68,8.87-10.95h16.55C426.43,160.27,420.05,171,401,171Z"/><path class="cls-2" d="M465,170.1V148.55H450.12V170.1H433.57V114.94h16.55v20.51H465V114.94h16.54V170.1Z"/><path class="cls-2" d="M489.24,170.1V114.94h40.93v13.19H505.7v7.93h22v12h-22v8.88h24.47V170.1Z"/><path class="cls-2" d="M570.93,170.1l-16.81-29.82V170.1H537.4V114.94h19l16.29,30.51V114.94h16.72V170.1Z"/><path class="cls-3" d="M10.23,207.65H207.64V10.23H10.23Z"/><path class="cls-4" d="M0,0V217.88H217.88V0ZM207.64,207.65H10.23V10.23H207.64Z"/><polygon class="cls-5" points="144.76 107.74 175.03 67.29 141.98 67.29 127.71 93.03 127.71 122.35 143.7 151.89 176.61 151.89 144.76 107.74"/><polygon class="cls-5" points="99.02 67.29 98.36 67.29 98.36 100.2 68.88 100.2 68.88 67.29 47.47 67.29 47.47 151.89 68.88 151.89 68.88 117.39 98.36 117.39 98.36 151.89 99.02 151.89 120.43 151.89 121.11 151.89 121.11 67.29 120.43 67.29 99.02 67.29"/></g></g></svg>