<svg xmlns="http://www.w3.org/2000/svg" viewBox="0 0 2024.99 896.53"><defs><style>.cls-1{fill:#455b51;}</style></defs><title>icon-wall</title><g id="Layer_2" data-name="Layer 2"><g id="Layer_1-2" data-name="Layer 1"><path class="cls-1" d="M533.79,809.67a14.3,14.3,0,0,0-12.25-11.9,9,9,0,0,0-.36-1.85,9.83,9.83,0,0,0-15.08-5.33,10.71,10.71,0,0,0-16.48,7.32l-.56.14c-.18-.42-.35-.84-.56-1.25-2.74-5.41-7.6-8.56-12.08-7.83a9.23,9.23,0,0,0-6.82,5.47,10.07,10.07,0,0,0-7.63-.55,9.81,9.81,0,0,0-5.72,5.53,17.68,17.68,0,0,0-.05,12.65,11.93,11.93,0,0,0-4.51,6.1,19,19,0,0,0,1.38,14.5c.27.53.55,1.06.86,1.57a12,12,0,0,0-4.84,6.26,16.56,16.56,0,0,0,1.74,13.56,20.57,20.57,0,0,0,4.52,5.39,10.63,10.63,0,0,0,1.33,7.78,12.9,12.9,0,0,0,9.7,6.26C472.55,885,480.21,890,492,895l.13,0a10.24,10.24,0,0,0,5.41,1.5,12,12,0,0,0,3.24-.46h.07a11.28,11.28,0,0,0,2.46-1c3.56-2.07,5-5.61,3.76-9.24-3.56-10.41-3.26-18.23.86-23.23,7.16-8.66,23.75-6.53,23.92-6.5l1.93.26.19-1.93c0-.26.58-6.29-3-10.39-.2-.23-.42-.46-.64-.67a16.88,16.88,0,0,0,3-1,18,18,0,0,0,11.26-16A17.69,17.69,0,0,0,533.79,809.67Zm-64.57,61.15-.53-1h-1.21a9.11,9.11,0,0,1-7.56-4.46,6.53,6.53,0,0,1-.64-5.84l.57-1.37-1.2-.87a16.24,16.24,0,0,1-4.56-5.06,12.92,12.92,0,0,1-1.45-10.49,8.16,8.16,0,0,1,4.73-5.06l2.23-.91-1.43-1.93a18.92,18.92,0,0,1-1.73-2.8c-1.93-3.89-2.38-8.23-1.21-11.61a8.07,8.07,0,0,1,4.11-4.83l1.61-.76-.68-1.65-.09-.17c-1.65-3.88-1.83-8-.49-11.07a6.22,6.22,0,0,1,3.54-3.5c1.87-.66,4.11-.2,6.32,1.28l2.16,1.45.69-2.51c.78-2.82,2.46-4.64,4.62-5,2.81-.48,6.15,1.93,8.12,5.83.16.31.3.63.44,1a.5.5,0,0,0-.12.08c-.38.23-.76.47-1.12.74s-.42.33-.62.49-.28.24-.4.36a12.84,12.84,0,0,0-2,2.24l-.13.19a15.56,15.56,0,0,0-.9,1.52c-.06.14-.13.27-.19.4s-.22.5-.32.76-.2.54-.28.82-.15.45-.2.69a12.17,12.17,0,0,0-.25,1.23l-.06.45a13.5,13.5,0,0,0-.1,1.57c0,.33,0,.68,0,1a15,15,0,0,0-11.08,21,11.53,11.53,0,0,0,3.35,18.26c0,1,0,2,0,2.94,0,.31,0,.62.06.92q0,1,.12,1.89c0,.36.07.7.11,1,.05.56.12,1.12.19,1.66.05.36.11.71.16,1.06.09.52.18,1,.28,1.56.07.34.15.68.22,1,.11.51.24,1,.37,1.51l.24,1c.16.52.31,1,.48,1.56.09.27.18.56.28.85.21.61.44,1.22.68,1.83.07.17.12.34.2.51.31.77.65,1.54,1,2.29.1.22.21.43.31.65.27.54.55,1.08.83,1.61l.48.87c.25.47.52.93.8,1.38s.37.63.56.94.54.87.83,1.31l.64,1c.28.43.59.86.89,1.3l.69,1c.32.45.66.9,1,1.34s.47.64.71,1l1.13,1.43c.24.3.46.59.7.88l.06.08C478.35,883.79,473.47,879.14,469.22,870.82Zm62.64-31.9a13,13,0,0,1-8.33.65l-.5-.08-1.81.42L521,844l1.87.1a7.07,7.07,0,0,1,5.26,2.28,10.08,10.08,0,0,1,2.06,5.72c-5.17-.34-18.3-.3-25.17,8-5,6.06-5.54,15.09-1.53,26.82.88,2.6-.94,4.12-2.1,4.81-.09.05-.18.07-.27.12a118,118,0,0,1-7.2-24.12s0-.09,0-.13a72.32,72.32,0,0,1-1.1-15.33c2.62-4.47,10.35-4.64,10.43-4.65a1.87,1.87,0,0,0,0-3.74h0a21.45,21.45,0,0,0-9.9,2.77,48.1,48.1,0,0,1,2.45-9.9,2,2,0,0,0,.27-.42,2,2,0,0,0,.16-.75,40.88,40.88,0,0,1,4.66-8.57,27.29,27.29,0,0,1,14.9.94,1.87,1.87,0,1,0,1.52-3.42,29.31,29.31,0,0,0-12.89-1.78,30.22,30.22,0,0,1,7.3-5.74c2.73-1.3,6.71.38,8,1.14a1.79,1.79,0,0,0,.95.26,1.87,1.87,0,0,0,1-3.48c-.22-.13-4.43-2.56-8.76-2.07a10.6,10.6,0,0,1,1.61-3.45,1.86,1.86,0,0,0-.36-2.62,1.88,1.88,0,0,0-2.63.35,13.2,13.2,0,0,0-2.57,7.16,40.41,40.41,0,0,0-14.73,16.87c-.26.55-.52,1.14-.78,1.73-5.12-3.49-4.28-9.71-4.23-10a1.88,1.88,0,0,0-3.71-.58c-.55,3.4.23,10.4,6.56,14.15a54.69,54.69,0,0,0-2.78,14.76,2.42,2.42,0,0,0,0,.54,74.79,74.79,0,0,0,.65,13.44,9.24,9.24,0,0,1-3.54-3.36,1.88,1.88,0,0,0-2.53-.76,1.85,1.85,0,0,0-.79,2.52,13.33,13.33,0,0,0,7.54,5.93,120.26,120.26,0,0,0,6.93,23.19,6.53,6.53,0,0,1-3.35-.94,6.08,6.08,0,0,1-.53-.39,4.3,4.3,0,0,1-.6-.53l0,0-.78-.89c-11.77-13.49-17.65-23.35-17.19-39.85l.05-1.36-1.29-.45a7.81,7.81,0,0,1-2.37-13.43l1.23-1-.8-1.37a11.32,11.32,0,0,1,9.38-17l2.28-.09-.53-2.22a9,9,0,0,1-.12-3.91c0-.14.07-.28.09-.42a13.11,13.11,0,0,1,.38-1.26c.05-.11.08-.22.14-.33a9.1,9.1,0,0,1,.71-1.39l0,0a10,10,0,0,1,2.27-2.45l.37-.26c.3-.21.62-.4.94-.58s.4-.21.61-.3a9.28,9.28,0,0,1,3.19-.83l1.73-.14v-1.88a7,7,0,0,1,11.63-5l1.32,1.18,1.26-1.24a6,6,0,0,1,5-1.71,6.17,6.17,0,0,1,5.09,4.36,5.73,5.73,0,0,1,.2,2.32l-.19,2.09h2.11a10.53,10.53,0,0,1,10.48,9.75l.08,1.22,1.16.42a14,14,0,0,1,9.41,13.49A14.28,14.28,0,0,1,531.86,838.92ZM1966.08,238.58a10.74,10.74,0,0,0-10.61,9.09l-.56.14c-.18-.42-.36-.84-.57-1.25-2.74-5.41-7.59-8.55-12.07-7.83a9.25,9.25,0,0,0-6.83,5.47,10,10,0,0,0-7.62-.55,9.81,9.81,0,0,0-5.72,5.53,17.63,17.63,0,0,0-.06,12.65,12,12,0,0,0-4.51,6.11,19,19,0,0,0,1.38,14.49c.27.53.55,1.06.87,1.57a12,12,0,0,0-4.84,6.27,16.57,16.57,0,0,0,1.74,13.56,20.3,20.3,0,0,0,4.52,5.38,10.53,10.53,0,0,0,1.33,7.78,12.84,12.84,0,0,0,9.7,6.26c6.17,11.55,13.82,16.51,25.6,21.49l.13.06a10.23,10.23,0,0,0,5.41,1.49,12.5,12.5,0,0,0,3.25-.45l0,0h0a11.55,11.55,0,0,0,2.47-1c3.56-2.08,5-5.62,3.76-9.25-3.56-10.41-3.27-18.23.86-23.23,7.16-8.66,23.74-6.53,23.91-6.5l1.93.26.2-1.93c0-.26.57-6.29-3-10.38a8.28,8.28,0,0,0-.64-.68,16.88,16.88,0,0,0,3-.95,18,18,0,0,0,11.26-16,17.69,17.69,0,0,0-10.79-16.68,14.29,14.29,0,0,0-12.25-11.9,9.14,9.14,0,0,0-.35-1.85,9.86,9.86,0,0,0-15.09-5.33A10.67,10.67,0,0,0,1966.08,238.58Zm-31,82-.53-1h-1.21a9.13,9.13,0,0,1-7.57-4.46,6.59,6.59,0,0,1-.64-5.84l.57-1.37-1.19-.87a16.28,16.28,0,0,1-4.57-5.06,12.92,12.92,0,0,1-1.45-10.49,8.21,8.21,0,0,1,4.73-5.06l2.23-.91-1.43-1.93a19.16,19.16,0,0,1-1.73-2.79c-1.93-3.9-2.38-8.24-1.2-11.62a8.05,8.05,0,0,1,4.11-4.82l1.61-.77-.69-1.64-.08-.18c-1.65-3.88-1.83-8-.5-11.07a6.25,6.25,0,0,1,3.54-3.5c1.87-.66,4.11-.2,6.32,1.28l2.16,1.45.7-2.51c.77-2.82,2.46-4.63,4.61-5,2.82-.48,6.15,1.94,8.13,5.83.15.31.3.63.44.95a.62.62,0,0,0-.12.08c-.39.23-.76.48-1.12.74s-.42.33-.62.49l-.41.36a13.77,13.77,0,0,0-2,2.25l-.13.18a14.81,14.81,0,0,0-.89,1.53l-.2.39c-.11.26-.22.5-.32.76s-.19.55-.27.82a5.6,5.6,0,0,0-.2.7,8.52,8.52,0,0,0-.25,1.22c0,.15-.05.3-.07.46a13.33,13.33,0,0,0-.1,1.56c0,.34,0,.68,0,1a15,15,0,0,0-11.08,21.05,11.55,11.55,0,0,0,3.35,18.27c0,1,0,2,0,2.93,0,.31,0,.62.05.92q0,1,.12,1.89c0,.36.07.71.11,1.05.06.56.12,1.12.19,1.67.06.35.11.7.17,1.06.08.52.17,1,.27,1.55.08.35.15.69.22,1,.11.51.24,1,.37,1.52.08.33.16.65.25,1,.15.53.31,1,.48,1.56.09.27.18.57.27.85.21.61.45,1.22.69,1.84.06.16.12.33.19.5.31.77.65,1.54,1,2.29.1.22.21.43.31.65.27.54.54,1.08.83,1.62.15.29.32.57.47.86.26.47.53.93.8,1.38s.38.63.57.95.54.86.82,1.3.42.64.65,1,.58.86.88,1.3l.69,1c.32.44.66.89,1,1.33s.47.64.72.95l1.13,1.44c.23.29.45.58.69.87l.07.09C1944.19,333.56,1939.31,328.9,1935.07,320.58Zm38.23-76.5a6.08,6.08,0,0,1,10.12,2.65,5.57,5.57,0,0,1,.2,2.32l-.19,2.1h2.11a10.51,10.51,0,0,1,10.48,9.74l.08,1.23,1.17.41a14,14,0,0,1,9.4,13.49,14.31,14.31,0,0,1-9,12.67,13.14,13.14,0,0,1-8.34.65l-.49-.09-1.82.42-.2,4.13,1.87.1a7.07,7.07,0,0,1,5.26,2.28,10,10,0,0,1,2.07,5.72c-5.17-.34-18.3-.29-25.18,8-5,6.07-5.54,15.1-1.52,26.83.88,2.59-.95,4.12-2.11,4.8-.08.05-.17.07-.26.12a117.19,117.19,0,0,1-7.2-24.12c0-.05,0-.08,0-.13a73,73,0,0,1-1.11-15.33c2.62-4.47,10.35-4.64,10.43-4.65a1.87,1.87,0,0,0,0-3.74h0a21.43,21.43,0,0,0-9.9,2.77,47.23,47.23,0,0,1,2.44-9.89,2,2,0,0,0,.28-.43,1.92,1.92,0,0,0,.15-.74,41.08,41.08,0,0,1,4.66-8.57,27.11,27.11,0,0,1,14.91.94,1.83,1.83,0,0,0,.75.15,1.9,1.9,0,0,0,1.73-1.12,1.87,1.87,0,0,0-1-2.46,29.23,29.23,0,0,0-12.89-1.78,30,30,0,0,1,7.31-5.74c2.72-1.29,6.71.39,8,1.14a1.81,1.81,0,0,0,1,.26,1.87,1.87,0,0,0,1-3.48c-.22-.13-4.44-2.56-8.77-2.07a10.79,10.79,0,0,1,1.62-3.45,1.87,1.87,0,0,0-3-2.26,13.09,13.09,0,0,0-2.58,7.15A40.48,40.48,0,0,0,1960,281c-.27.55-.53,1.14-.78,1.73-5.13-3.49-4.28-9.7-4.24-10a1.87,1.87,0,0,0-3.7-.59c-.55,3.4.23,10.4,6.55,14.15a55.26,55.26,0,0,0-2.77,14.76,1.64,1.64,0,0,0,0,.54,74.72,74.72,0,0,0,.64,13.44,9.53,9.53,0,0,1-3.54-3.35,1.88,1.88,0,0,0-3.32,1.75,13.37,13.37,0,0,0,7.55,5.93,118.65,118.65,0,0,0,6.93,23.19,6.47,6.47,0,0,1-3.36-.94c-.2-.13-.36-.26-.53-.39a4.22,4.22,0,0,1-.59-.53l0,0-.79-.9c-11.76-13.48-17.65-23.35-17.18-39.84l0-1.37-1.3-.45a7.85,7.85,0,0,1-5.24-7.37,7.75,7.75,0,0,1,2.88-6.05l1.23-1-.8-1.37a11.32,11.32,0,0,1,9.38-17l2.28-.09-.53-2.21a8.62,8.62,0,0,1-.12-3.92l.09-.41a10.73,10.73,0,0,1,.37-1.26l.14-.33a9.61,9.61,0,0,1,.72-1.39l0-.06a9.75,9.75,0,0,1,2.26-2.45l.38-.26c.3-.21.61-.39.93-.58s.41-.21.62-.3a9.22,9.22,0,0,1,3.19-.83l1.73-.14v-1.88a6.94,6.94,0,0,1,11.62-5l1.33,1.18ZM331.07,756.14A1.87,1.87,0,1,0,333,758,1.87,1.87,0,0,0,331.07,756.14Zm-5.63,7.48a1.88,1.88,0,1,0,1.88,1.87A1.88,1.88,0,0,0,325.44,763.62Zm11.27-1.87a1.87,1.87,0,1,0,1.88,1.87A1.88,1.88,0,0,0,336.71,761.75Zm5.62-1.87a1.88,1.88,0,1,0,1.88-1.87A1.88,1.88,0,0,0,342.33,759.88Zm-40.73-7.37-3.18,5.5,3.18,5.49H308l3.18-5.49-3.18-5.5Zm4.2,7.26h-2l-1-1.76,1-1.75h2l1,1.75Zm7.07-14.86-3.18,5.5,3.18,5.49h6.36l3.19-5.49-3.19-5.5Zm4.2,7.24h-2l-1-1.74,1-1.75h2l1,1.75Zm44.28-81.55-14.74,14.69-.08.08-.2.2-23.28,23.2-.19.15-1.58,1.34,1.46,1.47a2.8,2.8,0,0,1,0,4,2.89,2.89,0,0,1-4,0l-5.31-5.29a2.8,2.8,0,0,1,0-4,2.84,2.84,0,0,1,4,0l1.47,1.46,1.32-1.6L341.56,685l11.81-11.78a1.85,1.85,0,0,0,0-2.64,1.88,1.88,0,0,0-2.65,0L336.25,685H302.91a5.63,5.63,0,0,0-5.64,5.61v3.74a5.64,5.64,0,0,0,5.45,5.61c-.42,1-1.55,1.61-3.81,2.64-3.86,1.77-9.15,4.2-9.15,13.12v41.53a17.62,17.62,0,0,0,17.63,17.56h32.35a17.61,17.61,0,0,0,17.62-17.56V715.76c0-8.92-5.29-11.34-9.15-13.12-2.25-1-3.39-1.64-3.8-2.64a5.63,5.63,0,0,0,5.44-5.61v-3.74a5.41,5.41,0,0,0-.69-2.61L364,673.25a1.88,1.88,0,1,0-2.66-2.65Zm-47.9,45.09,2.65,2.65h0l2,2a2.81,2.81,0,0,1,0,4,2.85,2.85,0,0,1-4,0L304.82,715a2.8,2.8,0,0,1,2-4.78,2.85,2.85,0,0,1,2,.81ZM310.28,727a2.77,2.77,0,0,1-.81,2,2.92,2.92,0,0,1-4,0l-5.31-5.29a2.81,2.81,0,0,1,0-4,2.84,2.84,0,0,1,4,0l2.65,2.65,2.66,2.64A2.8,2.8,0,0,1,310.28,727Zm43.32,30.34a13.84,13.84,0,0,1-13.86,13.81H307.39a13.85,13.85,0,0,1-13.87-13.81v-14.9a15.54,15.54,0,0,0,7.82,2.32c4.37,0,8.44-2.22,12.88-5.62,6.61-5.09,11.26-4.78,19.13,1.26,4,3,7.45,4.6,11,4.6,2.94,0,5.92-1.08,9.26-3.2Zm-7-51.25c3.58,1.65,7,3.19,7,9.72V737.2c-7.15,5.3-11.3,5.3-18,.19-7.84-6-14.54-8.33-23.73-1.27-7.57,5.81-12.16,6.3-18.41,1.8V715.76c0-6.53,3.39-8.07,7-9.72,2.9-1.32,6.18-2.83,6.18-7.12v-2.66H302.9a1.87,1.87,0,0,1-1.87-1.87v-3.74a1.88,1.88,0,0,1,1.87-1.88h29.6l-13.94,13.88a6.6,6.6,0,0,0-7.76,1.13,6.53,6.53,0,0,0-1.75,3.18,6.76,6.76,0,0,0-6.89,1.46,6.48,6.48,0,0,0-1.92,4.63,6.79,6.79,0,0,0,.41,2.25,6.5,6.5,0,0,0-3.14,11l5.31,5.29a6.56,6.56,0,0,0,11-3.13,6.41,6.41,0,0,0,2.25.42,6.5,6.5,0,0,0,6.13-8.85,6.35,6.35,0,0,0,3.16-1.67,6.58,6.58,0,0,0,1.14-7.75l13.92-13.88v2.21C340.46,703.21,343.75,704.72,346.64,706Zm-.55-11.65a1.87,1.87,0,0,1-1.88,1.87h-3.3l5.18-5.16Zm-34.39-443V236.82a10.42,10.42,0,0,1,2.85-7.23A16.69,16.69,0,0,0,319.22,218V206.79A16.89,16.89,0,0,0,302.31,190H229.08a16.88,16.88,0,0,0-16.89,16.84V218a16.63,16.63,0,0,0,5,11.91,9.11,9.11,0,0,1,2.5,6.46v13.38a15.07,15.07,0,0,0,15.08,15h63.5A13.43,13.43,0,0,0,311.7,251.41Zm-16.11-57.5a.39.39,0,0,1,.36-.23h2.27a.43.43,0,0,1,.23.06c2.05,1.84,2.5,4.3,1.36,7.55a.33.33,0,0,1-.4.26.36.36,0,0,1-.37-.28,22,22,0,0,0-3.42-7A.38.38,0,0,1,295.59,193.91Zm-17.64,0a.4.4,0,0,1,.37-.23h2.26a.37.37,0,0,1,.23.06c2.06,1.84,2.5,4.3,1.36,7.55a.3.3,0,0,1-.39.26.36.36,0,0,1-.38-.28,22,22,0,0,0-3.41-7A.35.35,0,0,1,278,193.91Zm-29,67.14H234.77a11.31,11.31,0,0,1-11.32-11.28V236.4a12.81,12.81,0,0,0-3.62-9.12A12.94,12.94,0,0,1,216,218V206.79a13.14,13.14,0,0,1,13.13-13.11H256.8a9.85,9.85,0,0,1,9.84,9.81V218a13,13,0,0,1-3.89,9.26,11.57,11.57,0,0,0-3.62,8.23v15.35A10.22,10.22,0,0,1,248.91,261.05Zm14-10.18V235.52a7.87,7.87,0,0,1,2.5-5.58,16.68,16.68,0,0,0,5-11.92V203.49a13.52,13.52,0,0,0-4.24-9.81h8a4.11,4.11,0,0,0,.72,2.83,18,18,0,0,1,2.85,5.75,4.15,4.15,0,0,0,3.87,3h.16a4.06,4.06,0,0,0,3.9-2.77c1.19-3.36,1.09-6.35-.24-8.85h6.37a4.13,4.13,0,0,0,.73,2.82,18.41,18.41,0,0,1,2.85,5.76,4.09,4.09,0,0,0,3.87,3h.16a4.08,4.08,0,0,0,3.91-2.76c1.17-3.35,1.07-6.32-.23-8.81a13.14,13.14,0,0,1,12.33,13.07V218a13,13,0,0,1-3.63,9,14.08,14.08,0,0,0-3.88,9.81v14.59a9.67,9.67,0,0,1-9.68,9.64H258.41A13.86,13.86,0,0,0,262.89,250.87Zm39.42-19.76a1.87,1.87,0,0,0-1.87-1.87H283.53a1.87,1.87,0,1,0,0,3.74h16.91A1.87,1.87,0,0,0,302.31,231.11ZM276,229.24h-3.74a1.87,1.87,0,1,0,0,3.74H276a1.87,1.87,0,1,0,0-3.74Zm-42.79,11.62,2.81-2.81a1.87,1.87,0,0,0-2.65-2.65l-2.81,2.81a1.88,1.88,0,0,0,1.32,3.2A1.91,1.91,0,0,0,233.23,240.86ZM247.1,228.1a1.87,1.87,0,0,0,1.13-3.36l-3.17-2.41a1.88,1.88,0,0,0-2.27,3l3.17,2.4A1.86,1.86,0,0,0,247.1,228.1Zm-9.36,24-3.18-2.4a1.87,1.87,0,1,0-2.27,3l3.16,2.41a2,2,0,0,0,1.14.38,1.88,1.88,0,0,0,1.15-3.37Zm11.79-9-3.83,1.13a1.88,1.88,0,0,0,.55,3.67,2,2,0,0,0,.53-.08l3.82-1.13a1.86,1.86,0,0,0,1.26-2.33A1.9,1.9,0,0,0,249.53,243.05ZM225.4,207.17l2.81-2.8a1.86,1.86,0,0,0,0-2.65,1.89,1.89,0,0,0-2.66,0l-2.81,2.81a1.87,1.87,0,0,0,1.33,3.19A1.91,1.91,0,0,0,225.4,207.17Zm4.5,11.23L226.73,216a1.88,1.88,0,1,0-2.28,3l3.17,2.4a1.86,1.86,0,0,0,1.14.38,1.86,1.86,0,0,0,1.14-3.35Zm29.57,2.21a1.87,1.87,0,0,0,1.55-2.16l-.67-3.91a1.88,1.88,0,0,0-3.7.62l.66,3.91a1.89,1.89,0,0,0,1.85,1.57A1.55,1.55,0,0,0,259.47,220.61Zm-15.44-10a1.9,1.9,0,0,0-2.34-1.26l-3.82,1.13a1.87,1.87,0,0,0,.54,3.67,2.14,2.14,0,0,0,.54-.08l3.81-1.13A1.88,1.88,0,0,0,244,210.63Zm10.1-7.89-3.71-1.45a1.89,1.89,0,0,0-2.43,1.07,1.87,1.87,0,0,0,1.07,2.43l3.71,1.44a2,2,0,0,0,.68.12,1.87,1.87,0,0,0,.68-3.61ZM1970.31,94.54V80a10.41,10.41,0,0,1,2.85-7.23,16.7,16.7,0,0,0,4.67-11.58V49.91a16.89,16.89,0,0,0-16.91-16.83h-73.23a16.88,16.88,0,0,0-16.89,16.83V61.14a16.67,16.67,0,0,0,5,11.92,9.1,9.1,0,0,1,2.51,6.46V92.9a15.06,15.06,0,0,0,15.07,15h63.5A13.42,13.42,0,0,0,1970.31,94.54ZM1954.2,37a.4.4,0,0,1,.37-.23h2.26a.43.43,0,0,1,.23.06c2.06,1.83,2.5,4.3,1.36,7.55a.33.33,0,0,1-.4.26.36.36,0,0,1-.37-.28,22,22,0,0,0-3.42-6.95A.38.38,0,0,1,1954.2,37Zm-17.64,0a.41.41,0,0,1,.37-.23h2.26a.37.37,0,0,1,.23.06c2.07,1.83,2.51,4.3,1.36,7.55a.31.31,0,0,1-.39.26.37.37,0,0,1-.38-.28,22,22,0,0,0-3.41-6.95A.37.37,0,0,1,1936.56,37Zm-29,67.14h-14.14a11.32,11.32,0,0,1-11.31-11.28V79.53a12.85,12.85,0,0,0-3.62-9.12,12.94,12.94,0,0,1-3.89-9.27V49.91a13.14,13.14,0,0,1,13.13-13.1h27.72a9.84,9.84,0,0,1,9.84,9.81V61.14a13,13,0,0,1-3.89,9.27,11.55,11.55,0,0,0-3.62,8.23V94A10.21,10.21,0,0,1,1907.52,104.18Zm14-10.18V78.65a8,8,0,0,1,2.5-5.59,16.64,16.64,0,0,0,5-11.92V46.62a13.52,13.52,0,0,0-4.24-9.81h8a4.08,4.08,0,0,0,.72,2.82,18.13,18.13,0,0,1,2.86,5.76,4.13,4.13,0,0,0,3.87,3h.15a4.07,4.07,0,0,0,3.91-2.76c1.18-3.37,1.08-6.35-.25-8.85h6.37a4.1,4.1,0,0,0,.74,2.82,18.74,18.74,0,0,1,2.85,5.76,4.08,4.08,0,0,0,3.86,3h.16a4.08,4.08,0,0,0,3.91-2.76c1.17-3.35,1.07-6.32-.23-8.81a13.13,13.13,0,0,1,12.33,13.06V61.14a12.93,12.93,0,0,1-3.63,9,14.16,14.16,0,0,0-3.88,9.82V94.54a9.67,9.67,0,0,1-9.68,9.64H1917A13.86,13.86,0,0,0,1921.5,94Zm39.42-19.77a1.86,1.86,0,0,0-1.87-1.86h-16.91a1.87,1.87,0,0,0,0,3.74h16.91A1.86,1.86,0,0,0,1960.92,74.23Zm-26.28-1.86h-3.75a1.87,1.87,0,1,0,0,3.74h3.75a1.87,1.87,0,1,0,0-3.74ZM1891.84,84l2.81-2.8a1.87,1.87,0,0,0-2.65-2.65l-2.81,2.81a1.87,1.87,0,0,0,1.32,3.19A1.87,1.87,0,0,0,1891.84,84Zm13.87-12.75a1.87,1.87,0,0,0,1.14-3.36l-3.17-2.41a1.89,1.89,0,0,0-2.63.36,1.87,1.87,0,0,0,.35,2.62l3.17,2.41A1.88,1.88,0,0,0,1905.71,71.23Zm-9.36,24-3.17-2.4a1.88,1.88,0,0,0-2.63.36,1.86,1.86,0,0,0,.35,2.62l3.17,2.4a1.87,1.87,0,0,0,1.13.39,1.88,1.88,0,0,0,1.15-3.37Zm11.79-9-3.82,1.13a1.87,1.87,0,0,0,.54,3.66,1.93,1.93,0,0,0,.53-.07l3.82-1.13a1.87,1.87,0,1,0-1.07-3.59ZM1884,50.3l2.81-2.81a1.85,1.85,0,0,0,0-2.64,1.89,1.89,0,0,0-2.66,0l-2.81,2.81a1.86,1.86,0,0,0,0,2.64,1.91,1.91,0,0,0,2.66,0Zm4.5,11.23-3.17-2.41a1.87,1.87,0,1,0-2.27,3l3.17,2.41a1.83,1.83,0,0,0,1.13.38,1.91,1.91,0,0,0,1.5-.73A1.87,1.87,0,0,0,1888.51,61.53Zm29.58,2.21a1.88,1.88,0,0,0,1.54-2.16l-.66-3.91a1.88,1.88,0,0,0-3.71.62l.67,3.91a1.88,1.88,0,0,0,1.85,1.57A1.63,1.63,0,0,0,1918.09,63.74Zm-15.45-10a1.9,1.9,0,0,0-2.34-1.26l-3.81,1.13a1.87,1.87,0,0,0,.53,3.67,2.08,2.08,0,0,0,.54-.08l3.81-1.13A1.88,1.88,0,0,0,1902.64,53.76Zm10.1-7.89L1909,44.42a1.9,1.9,0,0,0-2.43,1.07,1.86,1.86,0,0,0,1.07,2.42l3.72,1.45a1.93,1.93,0,0,0,.67.12,1.87,1.87,0,0,0,.68-3.61Zm23.66,539.86a5.61,5.61,0,0,1-.36,5.47,4.26,4.26,0,0,0,3.65,6.45H1965a4.27,4.27,0,0,0,3.64-6.49,5.58,5.58,0,0,1-.35-5.43,8.69,8.69,0,0,1,4-3.82c15.33-7.31,25.79-15.52,26.9-31.88a4.48,4.48,0,0,0-4.45-4.77h-4.42a2.8,2.8,0,0,0-.27-.4,3.09,3.09,0,0,0-1.25-.86,3.12,3.12,0,0,0-2.1-4.43,11.76,11.76,0,0,1-3.28-6.77,2.84,2.84,0,0,0-1.06-.79l18.15-24.81a1.85,1.85,0,0,0-.41-2.62,1.87,1.87,0,0,0-2.62.41l-17.6,24.07a3.14,3.14,0,0,0-2.52-.75,3.07,3.07,0,0,0-.73-1.86l7.44-21.12a1.87,1.87,0,0,0-3.53-1.24l-7.33,20.76a3,3,0,0,0-1.41-1.63,3.11,3.11,0,0,0-2.72-.15,3.17,3.17,0,0,0-1.84-2,3.21,3.21,0,0,0-2.73.2,11.82,11.82,0,0,1-7-2.69,3,3,0,0,0-2.58.87,3.3,3.3,0,0,0-4.92,0,3.07,3.07,0,0,0-2.58-.87,3.14,3.14,0,0,0-2.3,1.48,3.13,3.13,0,0,0-4.75,1.21,3,3,0,0,0-3.77.52c-2.27-2.49-5.29-5.13-8.46-6.15l-1.64-.54-.67,1.59c-.14.35-2.69,6.57-1.09,12.64a4.82,4.82,0,0,0-.38.51,3,3,0,0,0-.41,1.82,3.42,3.42,0,0,0-2.49,1.14,3.58,3.58,0,0,1-3,4.07,3.6,3.6,0,0,1-2.44,4.41,3.06,3.06,0,0,0,0,2.72,3.12,3.12,0,0,0-1.26.86,4,4,0,0,0-.27.4H1910a4.48,4.48,0,0,0-4.45,4.77c1.12,16.36,11.57,24.57,26.91,31.88A8.72,8.72,0,0,1,1936.4,585.73ZM1928.68,520a26.05,26.05,0,0,1,6.85,6.38c.28.36.53.71.76,1l0,0c.25.35.46.67.62.94a3.36,3.36,0,0,1,.44,2.75,4,4,0,0,1-1.33,2,3.64,3.64,0,0,1-5-.12l-.07-.07-.07-.07,0,0a8.51,8.51,0,0,1-1.25-1.5.09.09,0,0,1,0-.06,9.82,9.82,0,0,1-.89-1.74C1927.4,526.09,1928.07,522.2,1928.68,520ZM1922,541.65a3.08,3.08,0,0,0,.25-2.42,3.15,3.15,0,0,0,2.09-1.26,3,3,0,0,0,.55-2.37,3.13,3.13,0,0,0,2.24-1l.19-.22a14.55,14.55,0,0,0,1.07,1.16l.14.12.07.08c.1.09.22.15.33.24a6.73,6.73,0,0,0,.79.62,5.12,5.12,0,0,0,.52.27,7.46,7.46,0,0,0,.69.35c.2.09.39.12.58.19s.47.15.72.2.39,0,.58.07.49.07.74.08h.09c.22,0,.44,0,.66-.06s.35,0,.52-.05a5.22,5.22,0,0,0,.78-.19c.16,0,.33-.07.5-.13a8.16,8.16,0,0,0,.86-.39l.35-.16a8,8,0,0,0,1.17-.79,7.54,7.54,0,0,0,2.63-4.15,7.19,7.19,0,0,0-.9-5.42v0c-.18-.29-.42-.66-.71-1.08l-.08-.1a6.41,6.41,0,0,1,6.56-.93,2.75,2.75,0,0,1,4.34-.55,3.16,3.16,0,0,0,2.19-1.09,3.12,3.12,0,0,0,2.18,1.09,3.19,3.19,0,0,0,2.31-.8,3.13,3.13,0,0,0,2,1.35,3.18,3.18,0,0,0,2.4-.51,3.11,3.11,0,0,0,1.84,1.6,2.73,2.73,0,0,1,4.06,1.6,2.74,2.74,0,0,1,3.83,2.1,2.74,2.74,0,0,0,.57.28l-3.32,9.37a1.88,1.88,0,0,0,3.55,1.25l2.9-8.24a3.12,3.12,0,0,0,2.17.6,2.61,2.61,0,0,0,.06.68l-5.07,6.91a1.88,1.88,0,0,0,1.52,3,1.84,1.84,0,0,0,1.51-.78l4.81-6.56c.08,0,.16,0,.25,0a3.13,3.13,0,0,0,.55,2.37,3.19,3.19,0,0,0,2.09,1.26,3.14,3.14,0,0,0,2.18,3.93,3,3,0,0,0-.17,2.1H1920.2a3.08,3.08,0,0,0-.16-2.1A3.15,3.15,0,0,0,1922,541.65Zm-12.68,8.12a.71.71,0,0,1,.19-.56.65.65,0,0,1,.5-.21h84.8a.65.65,0,0,1,.5.21.79.79,0,0,1,.2.56c-1,14.6-10.22,21.84-24.78,28.76A12.5,12.5,0,0,0,1965,584a9.34,9.34,0,0,0,.49,9.11.52.52,0,0,1-.44.78h-25.34a.5.5,0,0,1-.44-.25.53.53,0,0,1,0-.56,9.35,9.35,0,0,0,.47-9.09,12.53,12.53,0,0,0-5.7-5.47C1919.48,571.61,1910.25,564.37,1909.27,549.77ZM1950.49,534a1.85,1.85,0,0,0,1.32-.55l1.87-1.87A1.87,1.87,0,0,0,1951,529l-1.87,1.87a1.86,1.86,0,0,0,0,2.65A1.84,1.84,0,0,0,1950.49,534Zm-7,5.06a1.83,1.83,0,0,0,1.32.55,1.87,1.87,0,0,0,1.33-3.19l-1.88-1.87a1.88,1.88,0,0,0-2.65,0,1.85,1.85,0,0,0,0,2.64Zm7.5,1.1a1.88,1.88,0,0,0,0,2.65,1.91,1.91,0,0,0,1.34.54,1.86,1.86,0,0,0,1.31-.54l1.88-1.88a1.87,1.87,0,1,0-2.65-2.65Zm9.39-4.84a1.91,1.91,0,0,0,1.33.55,1.88,1.88,0,0,0,1.32-3.2l-1.87-1.87a1.88,1.88,0,1,0-2.66,2.65Zm0,4.84a1.88,1.88,0,0,0,0,2.65,1.9,1.9,0,0,0,1.33.54,1.86,1.86,0,0,0,1.32-.54L1965,541a1.87,1.87,0,0,0-2.65-2.65ZM1928,543.38a1.88,1.88,0,0,0,1.33-.54l1.88-1.88a1.88,1.88,0,0,0-2.66-2.65l-1.88,1.88a1.88,1.88,0,0,0,0,2.65A1.9,1.9,0,0,0,1928,543.38Zm9.39,0h1.88a1.87,1.87,0,1,0,0-3.74h-1.88a1.87,1.87,0,1,0,0,3.74Zm7.82,35.62a1.87,1.87,0,0,0,.67-3.62c-7.31-2.8-12.79-5.85-17.26-9.58a1.89,1.89,0,0,0-2.65.23,1.87,1.87,0,0,0,.24,2.64c4.8,4,10.62,7.24,18.32,10.2A1.79,1.79,0,0,0,1945.16,579ZM1921,556.1a1.88,1.88,0,0,0-3.45,1.49,26.85,26.85,0,0,0,3.37,5.67,1.84,1.84,0,0,0,1.49.75,1.89,1.89,0,0,0,1.14-.39,1.87,1.87,0,0,0,.35-2.62A23.49,23.49,0,0,1,1921,556.1ZM1759.24,452h54.45c12,0,19.71-9.19,19.71-23.39s-7.74-23.39-19.71-23.39h-54.45a23.52,23.52,0,0,0-22.48,16.65l-5.71-4.27a3.36,3.36,0,0,0-5.26,3.61l2.34,8.15-1.74,3.45a3.35,3.35,0,0,0,.51,3.75,3.39,3.39,0,0,0,2.5,1.11,3.3,3.3,0,0,0,1.19-.22l6.13-2.29A23.49,23.49,0,0,0,1759.24,452ZM1736,431.48l-5.76,2.15,1.37-2.71a3.38,3.38,0,0,0,.22-2.42l-2.07-7.19,6.22,4.64a23.7,23.7,0,0,0-.16,2.69,22.81,22.81,0,0,0,.17,2.75.18.18,0,0,1,0,.06ZM1813.69,409c11.77,0,16,10.14,16,19.65s-4.19,19.64-16,19.64-16-10.15-16-19.64S1801.92,409,1813.69,409Zm-73.81,23.35a17,17,0,0,1-.26-1.86,16,16,0,0,1-.11-1.84c0-.54,0-1.08.09-1.61s.12-1,.21-1.59l.16-.91A19.7,19.7,0,0,1,1759.24,409h42.84a20,20,0,0,0-2,1.88h-18.33a1.87,1.87,0,1,0,0,3.74h15.58c-.34.6-.66,1.22-1,1.87h-33.41a1.87,1.87,0,1,0,0,3.74H1795a34,34,0,0,0,0,16.84h-18.47a1.88,1.88,0,0,0,0,3.75h19.78c.29.65.61,1.27,1,1.87h-15.38a1.87,1.87,0,1,0,0,3.74H1800a19.91,19.91,0,0,0,2,1.87h-42.84A19.72,19.72,0,0,1,1740,432.81Zm77.21-1.24a1.48,1.48,0,0,0,1.47,1.6A1.62,1.62,0,0,0,1820,431a1.49,1.49,0,0,0-1.43-1.6A1.63,1.63,0,0,0,1817.09,431.1Zm-10,6a2,2,0,0,0,1.82-2,1.71,1.71,0,0,0-1.82-1.74,2,2,0,0,0-1.88,2A1.7,1.7,0,0,0,1807.11,437.08Zm0-16.84a1.67,1.67,0,0,0,1.82-1.7,2.1,2.1,0,0,0-1.82-2,1.66,1.66,0,0,0-1.88,1.69A2.09,2.09,0,0,0,1807.11,420.24Zm14.26,17.13a1.76,1.76,0,0,0-1.38,1.79c0,.91.63,1.55,1.38,1.43a1.77,1.77,0,0,0,1.35-1.79A1.3,1.3,0,0,0,1821.37,437.37Zm-7.38-.92a3.91,3.91,0,0,0-3.32,3.92,2.88,2.88,0,0,0,3.32,3.06,4,4,0,0,0,3.1-3.89A2.89,2.89,0,0,0,1814,436.45Zm1.58-17.3a2.83,2.83,0,0,0,3-3,3.87,3.87,0,0,0-3-3.82,2.8,2.8,0,0,0-3.21,3A3.82,3.82,0,0,0,1815.57,419.15Zm-8.46,8.57a3.44,3.44,0,1,0,3.56-3.61A3.53,3.53,0,0,0,1807.11,427.72Zm14.94-3.19a2.07,2.07,0,0,0,2-2.26,2.43,2.43,0,0,0-2-2.52A2.05,2.05,0,0,0,1820,422,2.39,2.39,0,0,0,1822.05,424.53Zm-41.18,59.65a9.88,9.88,0,0,0,1.31-8.82,10.85,10.85,0,0,0-.77-8.42c-2.94-6.18-10.38-9.73-20.43-9.73s-17.48,3.55-20.42,9.73a10.79,10.79,0,0,0-.78,8.43,9.89,9.89,0,0,0,1.31,8.81c3.23,4.54,10.47,7.14,19.89,7.14S1777.65,488.71,1780.87,484.18ZM1744,468.54c3.25-6.84,13-7.58,17-7.58s13.78.74,17,7.58a7.1,7.1,0,0,1,.45,6,4.8,4.8,0,0,1-.3.6,1.29,1.29,0,0,1-.09.16l-.14.2a7.49,7.49,0,0,1-1,1.17.46.46,0,0,1-.07.07,10.65,10.65,0,0,1-1.24,1l-.19.14a16.76,16.76,0,0,1-1.47.85l-.35.17a15.38,15.38,0,0,1-1.65.68l-.49.17c-.58.19-1.21.38-1.86.53-.17.05-.35.08-.53.12-.68.15-1.38.29-2.12.4l-.47.07c-.78.11-1.6.2-2.44.25l-.31,0c-.91.06-1.84.09-2.81.09s-1.91,0-2.83-.09l-.3,0c-.84-.05-1.65-.14-2.44-.25l-.47-.07c-.74-.11-1.43-.25-2.11-.39l-.55-.13c-.64-.15-1.26-.34-1.84-.53l-.5-.17c-.58-.21-1.13-.43-1.63-.67l-.39-.19c-.51-.27-1-.54-1.45-.83l-.21-.16a10.85,10.85,0,0,1-1.2-1l-.1-.1a8.15,8.15,0,0,1-.93-1.14c0-.08-.1-.14-.15-.23s0-.06-.06-.09c-.12-.22-.23-.44-.33-.67A7.12,7.12,0,0,1,1744,468.54Zm.21,13.47a6,6,0,0,1-.89-1.81c.08.06.18.11.26.18a10.13,10.13,0,0,0,.85.61l.94.58c.34.2.67.4,1,.57s.7.32,1.06.48c.59.25,1.2.48,1.84.7s1,.33,1.52.47.82.2,1.24.29,1,.22,1.53.32l1.24.19c.62.09,1.26.15,1.91.22l1.08.1c1,.07,2.1.12,3.21.12s2.16,0,3.21-.12l1.07-.1c.66-.06,1.29-.13,1.92-.22l1.22-.19c.54-.1,1.06-.21,1.57-.32s.82-.18,1.2-.29c.57-.15,1.11-.32,1.65-.51s1.15-.42,1.69-.66c.38-.15.75-.31,1.1-.48s.69-.37,1-.57.63-.38.93-.58.59-.4.86-.61l.26-.18a5.65,5.65,0,0,1-.89,1.81c-2.46,3.48-8.75,5.57-16.82,5.57S1746.63,485.5,1744.16,482Zm11.6-9.67c-.07.76.67,1.4,1.67,1.4a1.7,1.7,0,0,0,1.85-1.4,1.51,1.51,0,0,0-1.68-1.32A1.74,1.74,0,0,0,1755.76,472.34Zm-.77-6.85c.82,0,1.52-.43,1.58-.94s-.54-.88-1.31-.88-1.47.39-1.57.88S1754.18,465.49,1755,465.49Zm13.29,0c.81,0,1.35-.43,1.22-.94a1.69,1.69,0,0,0-1.64-.88c-.78,0-1.33.39-1.23.88S1767.46,465.49,1768.28,465.49Zm-17.63,8.26a2.47,2.47,0,0,0-2.28,1.5c-.27.88.38,1.61,1.45,1.61a2.39,2.39,0,0,0,2.31-1.61C1752.32,474.41,1751.65,473.75,1750.65,473.75Zm-1.57-2.73c1.89,0,3.62-1.11,3.86-2.41s-1-2.14-2.63-2.14-3.37.93-3.79,2.14S1747.2,471,1749.08,471Zm20.17-1.24c.31,1.37,2.15,2.56,4.1,2.56s3.05-1.19,2.52-2.56a4.44,4.44,0,0,0-4-2.27C1770.14,467.51,1769,468.49,1769.25,469.78Zm-8.29-1.17c1.78,0,3.11-1,3-2.14s-1.49-1.92-3.07-1.92-2.93.83-3,1.92S1759.19,468.61,1761,468.61Zm7.26,10c1.68,0,2.76-1.18,2.45-2.55a3.32,3.32,0,0,0-3.25-2.29,2.22,2.22,0,0,0-2.48,2.29A3.22,3.22,0,0,0,1768.22,478.58ZM170.26,52l-1.73,3.45a3.36,3.36,0,0,0,.5,3.75,3.41,3.41,0,0,0,2.51,1.12,3.57,3.57,0,0,0,1.19-.22l6.13-2.3a23.49,23.49,0,0,0,22.51,16.84h54.45c12,0,19.71-9.18,19.71-23.39s-7.74-23.39-19.71-23.39H201.37A23.52,23.52,0,0,0,178.9,44.54l-5.71-4.28a3.35,3.35,0,0,0-3.93-.08,3.29,3.29,0,0,0-1.33,3.69Zm85.56-20.39c11.77,0,16,10.14,16,19.64s-4.19,19.64-16,19.64-16-10.15-16-19.64S244.06,31.63,255.82,31.63Zm-74.09,18c.06-.5.12-1,.21-1.59l.16-.91a19.72,19.72,0,0,1,19.27-15.54h42.84a18.82,18.82,0,0,0-2,1.87H223.84a1.88,1.88,0,1,0,0,3.75h15.58a19.19,19.19,0,0,0-.94,1.87H205.07a1.87,1.87,0,1,0,0,3.74h32.1a33.93,33.93,0,0,0,0,16.83H218.7a1.88,1.88,0,1,0,0,3.75h19.78c.29.65.6,1.27.94,1.88H224.05a1.87,1.87,0,1,0,0,3.73h18.13a17,17,0,0,0,2,1.87H201.37a19.71,19.71,0,0,1-19.25-15.46L182,55c-.12-.62-.21-1.23-.27-1.85s-.1-1.23-.1-1.85S181.7,50.19,181.73,49.66Zm-3.66-1.08a23.83,23.83,0,0,0-.17,2.69,22.68,22.68,0,0,0,.18,2.75.28.28,0,0,1,0,.09l-5.76,2.16,1.36-2.72a3.32,3.32,0,0,0,.22-2.42l-2.06-7.19Zm81.15,5.16a1.5,1.5,0,0,0,1.48,1.6,1.64,1.64,0,0,0,1.43-1.71A1.5,1.5,0,0,0,260.7,52,1.64,1.64,0,0,0,259.22,53.74Zm-10,6a2,2,0,0,0,1.81-2A1.7,1.7,0,0,0,249.25,56a2,2,0,0,0-1.88,2A1.69,1.69,0,0,0,249.25,59.71Zm0-16.84a1.66,1.66,0,0,0,1.81-1.7,2.08,2.08,0,0,0-1.81-2,1.66,1.66,0,0,0-1.88,1.69A2.07,2.07,0,0,0,249.25,42.87ZM263.5,60a1.77,1.77,0,0,0-1.37,1.8c0,.9.62,1.54,1.37,1.42a1.75,1.75,0,0,0,1.35-1.78A1.3,1.3,0,0,0,263.5,60Zm-7.37-.92A3.92,3.92,0,0,0,252.81,63a2.88,2.88,0,0,0,3.32,3.06,4,4,0,0,0,3.09-3.89A2.9,2.9,0,0,0,256.13,59.08Zm1.57-17.29a2.84,2.84,0,0,0,3-3,3.88,3.88,0,0,0-3-3.82,2.81,2.81,0,0,0-3.21,3A3.84,3.84,0,0,0,257.7,41.79Zm-8.45,8.57a3.44,3.44,0,1,0,3.56-3.61A3.53,3.53,0,0,0,249.25,50.36Zm14.93-3.19a2.08,2.08,0,0,0,2-2.27,2.43,2.43,0,0,0-2-2.52,2.06,2.06,0,0,0-2.05,2.27A2.4,2.4,0,0,0,264.18,47.17Zm-40.64,42.4c-2.93-6.18-10.38-9.72-20.43-9.72s-17.48,3.54-20.41,9.72a10.75,10.75,0,0,0-.78,8.43,9.83,9.83,0,0,0,1.31,8.81c3.22,4.54,10.47,7.15,19.88,7.15s16.67-2.62,19.9-7.15A9.94,9.94,0,0,0,224.32,98,10.81,10.81,0,0,0,223.54,89.57Zm-3.6,15.08c-2.47,3.48-8.76,5.56-16.83,5.56s-14.34-2.07-16.81-5.56a5.81,5.81,0,0,1-.89-1.82,2.93,2.93,0,0,0,.26.18,7.66,7.66,0,0,0,.85.61c.3.2.61.4.93.59s.67.39,1,.57.7.31,1.06.47c.58.26,1.2.48,1.84.7s1,.33,1.52.48.82.19,1.24.28,1,.23,1.53.32.82.14,1.24.19c.62.1,1.25.16,1.9.22.36,0,.72.08,1.09.1,1,.08,2.09.12,3.2.12s2.17,0,3.21-.12c.37,0,.72-.06,1.08-.1.65,0,1.29-.12,1.91-.22.42,0,.83-.12,1.23-.19s1.05-.21,1.57-.32l1.2-.28c.57-.16,1.11-.33,1.64-.51s1.16-.42,1.7-.66c.37-.16.75-.31,1.1-.48s.68-.38,1-.57.64-.39.94-.59.58-.4.86-.61l.26-.18A6.15,6.15,0,0,1,219.94,104.65Zm.66-7.43a5.58,5.58,0,0,1-.31.59.7.7,0,0,1-.09.17c0,.07-.09.12-.14.2a7.27,7.27,0,0,1-.95,1.17l-.06.06a9,9,0,0,1-1.25,1l-.18.14a13.8,13.8,0,0,1-1.47.85l-.36.18a16.68,16.68,0,0,1-1.65.67l-.48.18c-.59.19-1.21.37-1.86.53l-.54.11c-.67.16-1.38.3-2.11.41l-.47.06c-.79.11-1.61.2-2.44.26h-.31c-.91.06-1.84.09-2.82.09s-1.9,0-2.82-.09H200c-.85-.06-1.65-.15-2.44-.26-.16,0-.32,0-.48-.06-.73-.11-1.43-.25-2.11-.4l-.55-.12c-.64-.16-1.25-.34-1.84-.53l-.49-.18c-.58-.21-1.13-.43-1.64-.67l-.38-.19a14.43,14.43,0,0,1-1.45-.83l-.21-.15a9.88,9.88,0,0,1-1.2-1s-.08-.06-.1-.1a8.08,8.08,0,0,1-.93-1.13c0-.09-.11-.15-.15-.23s0-.07-.06-.09c-.12-.22-.24-.44-.34-.67a7.18,7.18,0,0,1,.47-6c3.24-6.84,13-7.57,17-7.57s13.78.73,17,7.57A7.16,7.16,0,0,1,220.6,97.22Zm-20.86-3.56A1.73,1.73,0,0,0,197.9,95c-.08.77.67,1.41,1.67,1.41A1.71,1.71,0,0,0,201.42,95C201.43,94.23,200.68,93.66,199.74,93.66Zm-1-6.47c.05-.5-.54-.89-1.31-.89a1.55,1.55,0,0,0-1.57.89c-.09.51.5.93,1.31.93S198.65,87.7,198.7,87.19Zm11.71.93c.82,0,1.36-.42,1.22-.93A1.66,1.66,0,0,0,210,86.3c-.78,0-1.33.39-1.24.89S209.59,88.12,210.41,88.12Zm-17.62,8.27a2.45,2.45,0,0,0-2.28,1.49c-.27.88.37,1.61,1.45,1.61a2.4,2.4,0,0,0,2.31-1.61C194.46,97.05,193.79,96.39,192.79,96.39Zm-.35-7.29c-1.68,0-3.36.94-3.78,2.14s.67,2.42,2.55,2.42,3.62-1.12,3.86-2.42S194.11,89.1,192.44,89.1ZM214,90.15c-1.72,0-2.89,1-2.61,2.26s2.16,2.56,4.1,2.56,3.05-1.19,2.52-2.56A4.42,4.42,0,0,0,214,90.15Zm-11-3c-1.58,0-2.92.83-3,1.91s1.31,2.14,3.08,2.14,3.1-1,3-2.14S204.6,87.19,203,87.19Zm6.55,9.19a2.23,2.23,0,0,0-2.49,2.28,3.23,3.23,0,0,0,3.29,2.55c1.68,0,2.75-1.18,2.45-2.55A3.34,3.34,0,0,0,209.56,96.38Zm1435.91,414a42.4,42.4,0,0,0-4.39-6.08l-5.72-9.1a2,2,0,0,0-1.2-.84,1.9,1.9,0,0,0-1.43.27l-4.12,2.7a1.87,1.87,0,0,0-.63,2.43l4.85,9.29c.08.24.16.5.25.75a8.8,8.8,0,0,1,.63,2.5c.12,17.78-13.74,37.79-38,54.9-9.18,6.47-16.39,11.1-24,14.24a64,64,0,0,1-10.43,3.31c-2.52.58-4.27-1-6.1-2.86-1-1-1.78-1.83-3-1.87-2.81-.1-4.15,3.86-4.28,6.51a1.83,1.83,0,0,0,.51,1.39c7.51,7.92,17,11.87,28.12,11.87,11.81,0,25.5-4.44,40.71-13.32C1647.22,569,1659.87,534.83,1645.47,510.35Zm-72.31,74.52c7.9-3.27,15.31-8,24.69-14.65,24.49-17.25,38.75-37.6,39.54-56.14,3.46,15.39-3,31.47-12.57,42-22,24.22-42.72,30.47-55.76,30.33C1570.44,585.93,1571.81,585.43,1573.16,584.87Zm-21.37,1.06a7.85,7.85,0,0,1,.47-1.7l.23.23a13,13,0,0,0,5.52,3.79v0a34.74,34.74,0,0,0,11.85,1.77c12.51,0,33.69-5,57.74-31.46,11.27-12.41,18.5-32,12.09-50.07a36.17,36.17,0,0,1,2.54,3.73c13.34,22.7,1.31,54.54-26.83,71C1596.17,594.44,1569.63,603.93,1551.79,585.93Zm471.57,199.29h0l-.06,0-10-1.31V764.17l0-.17a4.48,4.48,0,0,0-.06-.62l0-.13a4.15,4.15,0,0,0-.2-.66l0,0c-3.08-7.75-26.38-12.83-48.26-12.83-23.48,0-48.61,5.85-48.61,14.56a.54.54,0,0,1,0,.08v34c0,8.08,22.36,15.17,47.85,15.17h1a1.87,1.87,0,0,0,1.85-1.87V799.08l7.52,2.51v15.5a1.88,1.88,0,0,0,.43,1.2l9.39,11.22s0,0,.06.06a.2.2,0,0,1,.06.07,2.31,2.31,0,0,0,.36.25,2.39,2.39,0,0,0,.21.13,1.79,1.79,0,0,0,.75.17h0c15.24-.07,29.53-1.85,38.23-4.75a1.88,1.88,0,0,0,1.28-1.77V787.08A1.87,1.87,0,0,0,2023.36,785.22Zm-103.6-21c.09-3.79,18.65-10.8,44.85-10.8,21.07,0,37.19,4.53,42.74,8.25l.21.14.18.14a4.24,4.24,0,0,1,1.67,1.91l0,.17s0,.12,0,.16v.08c0,1.39-2.35,6.12-6.59,7.8l-46.1-9.58-.39-.09h-.15a1.85,1.85,0,0,0-1.6.59,1.26,1.26,0,0,0-.2.2,2,2,0,0,0-.33,1,1.84,1.84,0,0,0,.31,1l6.93,10.61c-25.87-.47-41.5-8.14-41.58-11.59Zm89.7,7.62v11.51l-5.2-.68v-7.17A14.39,14.39,0,0,0,2009.46,771.88Zm-46.52,37.93c-26.89-.18-43.18-8-43.18-11.43V769.93c7.36,5.44,24.58,9.59,43.18,9.73Zm13.4-30.75h-.45l-.3.07-.16,0a.36.36,0,0,0-.09.05l-.26.14-.22.16a1.8,1.8,0,0,0-.19.2l-.18.23a.24.24,0,0,1-.06.08.64.64,0,0,0,0,.17c0,.09-.08.17-.11.26s0,.19,0,.29,0,.12,0,.18v16.72c-3.64-1.21-6-2-7.51-2.42V777.79s0,0,0-.06a1.38,1.38,0,0,1,0-.2,1.57,1.57,0,0,0-.05-.3,1.23,1.23,0,0,0-.11-.23c0-.08-.06-.16-.1-.23L1960,767l40.46,8.52v6.66l-24.08-3.16Zm7.26,44.09-5.64-6.74V785.94l5.64,6.49ZM1981.32,784l20.8,2.23h0l4.2.54,6.48.85a164.07,164.07,0,0,1-26.4,2.23Zm39.92,38.32c-8.07,2.42-20.49,3.94-33.89,4.13V793.57c13.21-.2,25.53-1.67,33.89-4ZM1719.59,201.71l-1.33,1.31,5.3,5.3L1769.45,254v10.47h1.88a41.17,41.17,0,1,0,0-82.33h-1.88v13A41.31,41.31,0,0,0,1719.59,201.71Zm53.61-8.24a30,30,0,0,1,18,7.43l-18,17.93Zm2.66,28,18-17.91a29.69,29.69,0,0,1,7.44,17.91Zm25.41,3.74a29.64,29.64,0,0,1-7.44,17.9l-18-17.9Zm-28.07,2.64,18,17.93a29.92,29.92,0,0,1-18,7.44Zm0,29.08a33.63,33.63,0,0,0,0-67.17V186a37.42,37.42,0,0,1,0,74.75Zm-26.28-30.65-18-17.93a29.89,29.89,0,0,1,18-7.39Zm22.53,22.46-16.12-16.07h16.12Zm-18.77-22.46V201a29.81,29.81,0,0,1,18,7.4Zm18.77,2.65h-16.12l16.12-16.07Zm0-29.34v4.59a33.89,33.89,0,0,0-43.15,1.55l-2.7-2.68A37.56,37.56,0,0,1,1769.45,199.6ZM1734.05,239c0-2.56-2.11-7.83-6.28-15.68a3.52,3.52,0,0,0-6.21,0c-4.17,7.85-6.28,13.12-6.28,15.68a9.39,9.39,0,0,0,18.77,0Zm-9.38,5.62A5.64,5.64,0,0,1,1719,239c0-1.39,1.49-5.66,5.64-13.52,4.15,7.85,5.63,12.13,5.63,13.52A5.63,5.63,0,0,1,1724.67,244.64Zm26.29,7.94a3.49,3.49,0,0,0-3.11,1.87c-4.17,7.85-6.28,13.12-6.28,15.68a9.39,9.39,0,0,0,18.78,0c0-2.56-2.12-7.83-6.29-15.68A3.49,3.49,0,0,0,1751,252.58Zm5.63,17.55a5.64,5.64,0,0,1-11.27,0c0-1.4,1.49-5.67,5.64-13.53C1755.1,264.46,1756.59,268.73,1756.59,270.13ZM213.06,558.88a1.52,1.52,0,0,0-.82,2c.73,1.76.76,3.18.06,4.22-.92,1.39-3.19,2.26-6,2.34-5.47-3.51-11.32-3.26-14.85.58a5,5,0,0,0-2.32-.2,4.67,4.67,0,0,0-3.16,1.95,4.76,4.76,0,0,0,.19,5.65,56,56,0,0,0-6.51,6.16c-.12.11-12.33,11.34-29.26,14.41a22.74,22.74,0,0,0-5.1,1.44c-.71.31-2.29,1.13-2.32,1.15a27.66,27.66,0,0,0,10.38,51.75,25.64,25.64,0,0,0,2.64.14,28.68,28.68,0,0,0,12.09-2.82c10.81-5.06,30.17-18.53,38.35-51.91a49.06,49.06,0,0,0,1.81-5.69,4.76,4.76,0,0,0,3.59-7.77,9.22,9.22,0,0,0,.68-7.41,12.65,12.65,0,0,0-3-4.77,8.69,8.69,0,0,0,5.28-3.29c.9-1.35,1.67-3.68.22-7.12A1.55,1.55,0,0,0,213.06,558.88Zm-9.49,35.83-.07.21c-7.86,32.21-26.36,45.12-36.69,50a24.49,24.49,0,0,1-22.34-43.57s1.44-.74,2.09-1A19.13,19.13,0,0,1,151,599c17.82-3.24,30.29-14.71,30.91-15.28a53.33,53.33,0,0,1,6.91-6.46h0a5.18,5.18,0,0,0,2.22.38s0,.05,0,.08,0,.09.05.13a1.76,1.76,0,0,0,.09.2,5.62,5.62,0,0,0,.25.56c0,.09.11.18.17.27s.21.34.33.5a3.06,3.06,0,0,0,.3.32c.11.13.22.27.34.39a8,8,0,0,0,.78.64,7.27,7.27,0,0,0,.85.5,4.4,4.4,0,0,0,.65.26,1,1,0,0,0,.21.1,7.05,7.05,0,0,0,.73.18l.16,0,.65.06h.46a1,1,0,0,1,.06.16.11.11,0,0,0,0,0,4.92,4.92,0,0,0,.37.81,5.7,5.7,0,0,0,1.15,1.46,5.39,5.39,0,0,0,.74.6,6,6,0,0,0,3.44,1.16h.27l0,0,.06.18c0,.08.08.16.11.25s.13.3.21.46.13.22.2.33a3.83,3.83,0,0,0,.28.42c.09.13.2.24.3.36l.3.34.49.42.21.18A49.56,49.56,0,0,1,203.57,594.71Zm6-18.87a6.28,6.28,0,0,1-.95,5.81,1.53,1.53,0,0,0,.38,2.14,1.78,1.78,0,0,1,.54,2.45,1.64,1.64,0,0,1-2.29.48l0,0a2.77,2.77,0,0,1-.59-.54l-.11-.1a2.54,2.54,0,0,1-.39-.67,1.09,1.09,0,0,1-.07-.3,1,1,0,0,1,0-.15.56.56,0,0,1,.06-.33v0a1.54,1.54,0,0,0-.37-2.14,1.56,1.56,0,0,0-2.16.37c0,.06-.11.08-.16.12s-.06.05-.11.06a1.14,1.14,0,0,1-.43.07,2.76,2.76,0,0,1-1.69-.59,2.94,2.94,0,0,1-1.12-1.37,1.5,1.5,0,0,1-.09-.43.61.61,0,0,1,.08-.32,1.5,1.5,0,0,0,.28-.87,1.54,1.54,0,0,0-2.81-.89h0a.68.68,0,0,1-.3.19l-.16,0a1.83,1.83,0,0,1-.34,0,2.73,2.73,0,0,1-.6-.11l-.18,0a3.68,3.68,0,0,1-.81-.42,3.37,3.37,0,0,1-.62-.56l-.06-.06a3.08,3.08,0,0,1-.34-.52.52.52,0,0,0-.06-.13,1.56,1.56,0,0,1-.09-.34.86.86,0,0,1,0-.17.57.57,0,0,1,.07-.34,1.54,1.54,0,0,0,.28-.89,1.51,1.51,0,0,0-.66-1.25,1.53,1.53,0,0,0-2.15.37l0,0a.56.56,0,0,1-.27.16,1.73,1.73,0,0,1-.35.05h-.14a2.53,2.53,0,0,1-.5-.09l-.14,0a4.09,4.09,0,0,1-.54-.24,2.92,2.92,0,0,1-.43-.22l0,0a1.79,1.79,0,0,1-.53-2.46,1.64,1.64,0,0,1,1.1-.66,2,2,0,0,1,1.39.34,1.62,1.62,0,0,0,1.15.26,1.58,1.58,0,0,0,1-.64c3.07-4.37,8.39-3,12-.46A11.35,11.35,0,0,1,209.6,575.84Zm-67,40a1.55,1.55,0,0,0-2.84-1.23,23,23,0,0,0,1.1,20.92,1.54,1.54,0,0,0,1.32.74,1.54,1.54,0,0,0,1.32-2.35A19.84,19.84,0,0,1,142.59,615.8ZM150,604.28a18.27,18.27,0,0,0-6.89,5,1.53,1.53,0,0,0,.16,2.17,1.49,1.49,0,0,0,1,.38,1.54,1.54,0,0,0,1.18-.54,15,15,0,0,1,5.71-4.12,1.54,1.54,0,1,0-1.16-2.86ZM1854.74,649.6c0-.36-.06-.69-.11-1s-.08-.61-.14-.91-.11-.52-.17-.77-.16-.68-.26-1c0-.14-.1-.25-.13-.38-.14-.38-.26-.76-.43-1.12-.06-.14-.16-.25-.23-.4a10.58,10.58,0,0,0-.77-1.28c-.18-.26-.38-.53-.59-.78a11,11,0,0,0-1-1c-.23-.2-.46-.4-.71-.58a12.06,12.06,0,0,0-1.55-1l-.38-.19a13.42,13.42,0,0,0-2.21-.85l-.77-.32c1.9-2.56,2.71-5.27,2.19-7.54-.36-1.55-1.51-3.67-4.92-4.91a1.88,1.88,0,1,0-1.3,3.52c1.48.54,2.34,1.28,2.56,2.24.33,1.43-.62,3.58-2.43,5.53a18.65,18.65,0,0,0-12,1h0c-.18.09-.36.16-.54.26s-.5.32-.76.49l-.46.29c-.36.25-.73.53-1.08.82l-.4.35c-.35.32-.68.65-1,1l-.32.37c-.32.38-.65.78-.94,1.19a3.53,3.53,0,0,1-.21.32c-.31.47-.61,1-.89,1.47a1.17,1.17,0,0,0,0,.11,24.92,24.92,0,0,0-2.34,6.69l-.45,2s-.49,2.3-.73,3.34c-6.37,27.91-29.62,42.73-57.08,57.89a3.86,3.86,0,0,0-1.83,4.41,2.5,2.5,0,0,0,2.4,1.73,1.93,1.93,0,0,0,.42,0c2.34-.34,5.2-.56,8.51-.82,20.6-1.61,59-4.58,78.72-50.76a53.08,53.08,0,0,0,3.51-10.13h0l.13-.6s0-.06,0-.1c.15-.73.3-1.47.42-2.22,0-.38.1-.74.14-1.1s.09-.69.12-1,.06-.85.09-1.26l0-.8c0-.41,0-.81,0-1.21S1854.77,649.87,1854.74,649.6Zm-7.83,17.72c-18.9,44.17-54.39,46.93-75.59,48.58-1.82.14-3.5.27-5,.42,27.24-15.17,50-30.43,56.57-59,.23-1,.47-1.91.72-2.74l.06-.28c.07-.51.17-1,.25-1.47,5.46-.54,8.39-1.57,10-2.51a7.18,7.18,0,0,1,.43,6l-1,2.84,3-.34c2.5-.28,6.51-1.66,8.3-4.89a10.08,10.08,0,0,1,.9,6.43l-.57,3,3-.9A11.11,11.11,0,0,0,1849,662,51.19,51.19,0,0,1,1846.91,667.32Zm4.16-16.05a20.11,20.11,0,0,1-.13,2.39.39.39,0,0,1,0,.09c-.1.94-.26,1.93-.47,3a12.57,12.57,0,0,1-1.09.78,14.54,14.54,0,0,0-4.6-9.54l-3.59-3.07.51,4.69c.28,2.63-1.53,4-3.21,4.73a11.27,11.27,0,0,0-3-8.12l-1.58-1.58-1.28,1.83c-.6.86-3,1.89-7.76,2.48a1.27,1.27,0,0,0,.06-.18,17,17,0,0,1,1.65-3.48l.1-.14c.21-.33.44-.64.67-1l.1-.12a10.88,10.88,0,0,1,2.4-2.21l.28-.18a8.6,8.6,0,0,1,.84-.47l.22-.1a11.49,11.49,0,0,1,3.08-.93,1.87,1.87,0,0,1,.32,0,7.16,7.16,0,0,1,.92-.09l.37,0,.88,0,.74,0c.38,0,.77.05,1.13.09l.6.08.66.11.64.13.8.19.66.17.43.12.55.18.29.1.65.23.13.05.4.16h0l.17.07.31.11a9.78,9.78,0,0,1,1.84.71l.1.06a7.29,7.29,0,0,1,1.42,1s0,0,.08.06a7.26,7.26,0,0,1,1.08,1.26c.06.08.1.17.16.25a8.82,8.82,0,0,1,.67,1.34,3.17,3.17,0,0,1,.14.4,9,9,0,0,1,.4,1.53c0,.13.06.26.08.38a14.39,14.39,0,0,1,.17,2.14C1851.08,651.05,1851.07,651.16,1851.07,651.27ZM1836,665.15a1.88,1.88,0,0,0-2.13,1.59c0,.28-4.53,28-45.19,41a1.88,1.88,0,0,0,.58,3.66,2,2,0,0,0,.58-.09c42.86-13.77,47.57-42.86,47.75-44.09A1.88,1.88,0,0,0,1836,665.15ZM92.26,437.55h62A15.94,15.94,0,0,0,170.17,422c5.61-1.2,9.41-4.17,9.41-7.85s-3.65-6.57-9.39-7.8v-6.23a2.4,2.4,0,0,0,0-.37v0c0-.18,0-.35,0-.52a16,16,0,0,0-16-15.91,15.11,15.11,0,0,0-1.51.08c-.24,0-.48.07-.73.1l-.71.11-.91.2-.47.12-1,.32-.33.13c-.35.13-.7.27-1,.43l-.25.13a10,10,0,0,0-1,.53l-.21.12-1,.64-.19.14c-.31.24-.64.48-1,.74h0a16,16,0,0,0-10.33-3.79c-.5,0-1,0-1.5.07l-.73.1-.71.11c-.31.06-.61.13-.92.21-.16,0-.31.07-.46.12-.35.09-.68.2-1,.32l-.33.12c-.35.14-.68.27-1,.43l-.26.13c-.35.16-.69.34-1,.53l-.21.13c-.34.2-.67.42-1,.64-.06.05-.13.09-.18.14-.33.24-.65.47-1,.74h0a16,16,0,0,0-9.12-3.75c-.1,0-.18-.05-.27-.05s-.29,0-.44,0a4.56,4.56,0,0,0-.51,0,16,16,0,0,0-10.32,3.8A15.95,15.95,0,0,0,76.31,399.2c0,.17,0,.34,0,.52v0c0,.12,0,.25,0,.37v6.46c-5.18,1.35-8.46,4.23-8.46,7.57s3.38,6.31,8.46,7.63A15.94,15.94,0,0,0,92.26,437.55Zm62-3.74h-62a12.21,12.21,0,0,1-12.18-11.36l1.61.11h.53l.65,0h.5l.53,0c.52,0,1-.05,1.52-.09h0a21,21,0,0,0,7.78-2.1h0a15.66,15.66,0,0,0,2,.85l.33.12a20.64,20.64,0,0,0,2.19.61l.39.09c.78.15,1.58.29,2.4.37.11,0,.23,0,.34,0,.87.08,1.75.14,2.65.14a21.51,21.51,0,0,0,11.27-2.76,12.46,12.46,0,0,0,1.14.64l.33.15a10,10,0,0,0,1,.43c.16.07.34.13.51.19s.62.22.94.31.39.11.59.17.64.17,1,.24l.63.13c.34.07.68.13,1,.18l.63.1,1.16.11.56,0c.58,0,1.17.06,1.76.06a22.75,22.75,0,0,0,10.34-2.22h0a17.32,17.32,0,0,0,2,.85,3.21,3.21,0,0,0,.33.12,19.81,19.81,0,0,0,2.18.61l.41.09c.77.15,1.56.29,2.38.37l.34,0c.87.08,1.75.13,2.65.13s1.54,0,2.28-.1h.21a23.31,23.31,0,0,0,6.47-1.47c.18.08.4.12.59.2.44.15.88.3,1.35.44l1,.26c.49.11,1,.21,1.49.29l1.12.17c.51.06,1,.11,1.54.13s.81.06,1.21.07l.54,0q.93,0,1.83-.06h0A12.21,12.21,0,0,1,154.23,433.81ZM97.81,413.23h16.63a1,1,0,0,1,.13.18s0,0,0,.06a1.69,1.69,0,0,1,.18.69,1.84,1.84,0,0,1-.17.69l-.12.21a3,3,0,0,1-.37.5,3.85,3.85,0,0,1-.35.35,3,3,0,0,1-.33.28c-.21.16-.44.33-.67.48l-.2.11a13.4,13.4,0,0,1-1.74.83l-.29.11-1,.32-.6.15q-.59.15-1.23.27c-.44.09-.91.16-1.4.21l-.7.07c-.68.05-1.37.11-2.11.11-.57,0-1.13,0-1.68-.08a3.44,3.44,0,0,1-.46,0c-.44,0-.86-.09-1.29-.16l-.36-.05a15,15,0,0,1-1.54-.31l-.27-.07c-.4-.11-.79-.22-1.16-.35l-.2-.08a6.35,6.35,0,0,0,1-1.7h0a6.28,6.28,0,0,0,.23-.85l0-.05a6.11,6.11,0,0,0,.09-.95A4.88,4.88,0,0,0,97.81,413.23Zm20.65,0H137a2.35,2.35,0,0,1,.16.21h0a1.57,1.57,0,0,1,.2.71,2.16,2.16,0,0,1-.36,1,3.08,3.08,0,0,1-.28.38,5.2,5.2,0,0,1-.69.64,6.24,6.24,0,0,1-.62.46,11,11,0,0,1-1.72.87c-.1,0-.2.08-.3.12a19.07,19.07,0,0,1-1.93.59l-.19.05c-.33.08-.67.14-1,.2s-1,.17-1.47.23l-.58.05c-.68.05-1.38.1-2.12.1s-1.42,0-2.12-.1l-.47-.05c-.67-.07-1.33-.16-2-.29l-.2,0c-.58-.12-1.12-.27-1.64-.43-.13,0-.26-.09-.39-.12a13.71,13.71,0,0,1-1.54-.63l-.08-.05s0,0,0-.05a6.28,6.28,0,0,0,.31-.57,2,2,0,0,0,.11-.26,3.85,3.85,0,0,0,.19-.47c0-.14.07-.28.11-.42s.06-.24.08-.37a4.32,4.32,0,0,0,.07-.82A4.88,4.88,0,0,0,118.46,413.23Zm22.54,0h16.64a1.21,1.21,0,0,1,.1.14s0,.09.07.13a1.7,1.7,0,0,1,.17.66,1.65,1.65,0,0,1-.18.7.19.19,0,0,0,0,.1,4.52,4.52,0,0,1-.45.61l-.34.34-.43.35a6.29,6.29,0,0,1-.83.55l-.27.16-.59.29a17,17,0,0,1-3.75,1.18h0c-.67.12-1.35.23-2.06.29s-1.51.11-2.31.11c-.57,0-1.13,0-1.68-.07-.16,0-.3,0-.46,0-.44-.05-.87-.09-1.29-.16l-.37-.05a15.34,15.34,0,0,1-1.53-.31l-.26-.07c-.41-.11-.79-.22-1.17-.35l-.21-.08a6.39,6.39,0,0,0,1-1.7h0a5.12,5.12,0,0,0,.24-.85l0-.05a6.09,6.09,0,0,0,.08-.95A5.84,5.84,0,0,0,141,413.23Zm25.84-.5a4,4,0,0,0,.73-.4c.16-.1.31-.22.46-.32l.24-.21a6,6,0,0,0,.44-.43,1.31,1.31,0,0,0,.12-.15,5.81,5.81,0,0,0,.76-1.14l0,0c3.91.9,6.21,2.7,6.21,4.12,0,1.65-3.07,3.83-8.23,4.48l-.87.1c-.64.05-1.3.09-2,.09a5.09,5.09,0,0,1-.55,0c-.55,0-1.08,0-1.61-.07l-.62-.06c-.62-.07-1.22-.16-1.81-.28l-.28-.06h0a7.15,7.15,0,0,0,.77-.91,1.48,1.48,0,0,0,.13-.21,4.56,4.56,0,0,0,.41-.7c.05-.12.11-.23.15-.35a5.82,5.82,0,0,0,.22-.67c0-.11.07-.22.09-.33a5.69,5.69,0,0,0,.11-1,4.2,4.2,0,0,0-.1-.93h2.91a6.52,6.52,0,0,0,1-.1l.33-.07a6.21,6.21,0,0,0,.61-.2ZM80.05,400.18l0-.32,0-.66A12.2,12.2,0,0,1,92.26,387a12.05,12.05,0,0,1,8.34,3.31,15.83,15.83,0,0,0-2.7,8.85,1.88,1.88,0,0,0,3.75,0,12.19,12.19,0,0,1,11.73-12.15,12.07,12.07,0,0,1,7.31,2.8,15.76,15.76,0,0,0-3.08,9.35,1.88,1.88,0,0,0,3.76,0,12.09,12.09,0,0,1,3.28-8.28c.26-.28.53-.54.81-.79l.13-.12c.24-.21.5-.4.76-.59l.26-.2a6.73,6.73,0,0,1,.63-.4c.14-.09.29-.19.44-.27a5,5,0,0,0,.46-.24l.65-.31a1.45,1.45,0,0,0,.29-.11c.28-.11.57-.22.86-.31l.14,0c.34-.1.69-.19,1-.27l.09,0c.37-.07.75-.12,1.12-.16a10.56,10.56,0,0,1,1.25-.06,12,12,0,0,1,7.77,2.81,15.78,15.78,0,0,0-3.08,9.35,1.88,1.88,0,0,0,3.76,0,12.06,12.06,0,0,1,3.3-8.28,8.51,8.51,0,0,1,.8-.79l.12-.12c.25-.21.5-.41.76-.59l.27-.2a5.93,5.93,0,0,1,.62-.4l.45-.28c.16-.08.31-.14.46-.23s.43-.22.66-.31l.28-.11c.28-.11.56-.22.86-.31a.31.31,0,0,1,.13,0q.51-.15,1.05-.27l.08,0c.38-.07.74-.12,1.12-.17s.83-.06,1.26-.06a12.2,12.2,0,0,1,12.2,12.17v8.25l0,.26a.45.45,0,0,1,0,.11,1.57,1.57,0,0,1-.15.61h0a1.84,1.84,0,0,1-.41.55s0,0-.05,0a2.7,2.7,0,0,1-.5.33,2.07,2.07,0,0,1-.7.13H81.93a1.91,1.91,0,0,1-.68-.13,2,2,0,0,1-.35-.21l-.22-.15a2.45,2.45,0,0,1-.31-.41.94.94,0,0,1-.09-.12,2.24,2.24,0,0,1-.16-.52,2,2,0,0,1-.05-.26l0-.12Zm-8.44,14c0-1.25,1.87-2.93,5.37-3.91l.1.17c.1.15.19.32.3.46a4.59,4.59,0,0,0,.49.6,2.81,2.81,0,0,0,.31.29,4.7,4.7,0,0,0,.43.35l.31.22a5.41,5.41,0,0,0,.79.42l.19.08a6.7,6.7,0,0,0,.76.24l.27.05a6.64,6.64,0,0,0,1,.1H93.78c0,.07.12.15.16.21h0a1.68,1.68,0,0,1,.19.71,1.81,1.81,0,0,1-.18.69,2.38,2.38,0,0,1-.18.3,3,3,0,0,1-.27.38,4.78,4.78,0,0,1-.39.39,3.61,3.61,0,0,1-.3.25,6.41,6.41,0,0,1-.63.46,17.26,17.26,0,0,1-7.82,2.14l-.47,0c-.5,0-1,0-1.51,0-.23,0-.46,0-.7,0a20.64,20.64,0,0,1-3.16-.34l-.63-.12C73.93,417.43,71.61,415.6,71.61,414.16Zm18.78,10.3a1.87,1.87,0,1,0,1.87,1.87A1.86,1.86,0,0,0,90.39,424.46Zm9.39,3.73a1.88,1.88,0,1,0,1.87,1.88A1.88,1.88,0,0,0,99.78,428.19Zm7.51-3.73a1.87,1.87,0,1,0,1.88,1.87A1.87,1.87,0,0,0,107.29,424.46Zm5.62,3.73a1.88,1.88,0,1,0,1.88,1.88A1.89,1.89,0,0,0,112.91,428.19Zm7.51-3.73a1.87,1.87,0,1,0,1.88,1.87A1.87,1.87,0,0,0,120.42,424.46Zm7.52,3.73a1.88,1.88,0,1,0,1.87,1.88A1.88,1.88,0,0,0,127.94,428.19Zm7.51-5.6a1.87,1.87,0,1,0,1.88,1.87A1.88,1.88,0,0,0,135.45,422.59Zm5.63,5.6a1.88,1.88,0,1,0,1.88,1.88A1.88,1.88,0,0,0,141.08,428.19Zm9.39-3.73a1.87,1.87,0,1,0,1.88,1.87A1.87,1.87,0,0,0,150.47,424.46Zm7.51,1.87a1.87,1.87,0,1,0,1.88,1.86A1.86,1.86,0,0,0,158,426.33ZM1543.4,134.61c5.61-1.2,9.41-4.17,9.41-7.85s-3.65-6.57-9.39-7.8v-6.24a2.28,2.28,0,0,0,0-.36v0c0-.17,0-.35,0-.52a16,16,0,0,0-16-15.91A12.62,12.62,0,0,0,1526,96a6.38,6.38,0,0,0-.73.1,5.52,5.52,0,0,0-.71.11,9.21,9.21,0,0,0-.91.2l-.47.12-1,.32-.33.12c-.35.13-.7.28-1,.43l-.25.13c-.35.17-.7.34-1,.54l-.21.12c-.34.21-.68.42-1,.64l-.19.14c-.31.23-.64.48-.95.74h0a16,16,0,0,0-10.33-3.8c-.5,0-1,0-1.5.08-.25,0-.49.06-.73.1s-.47.06-.71.11a7.62,7.62,0,0,0-.92.21,3.45,3.45,0,0,0-.46.12c-.35.09-.68.2-1,.32l-.33.11-1,.43-.26.13c-.35.17-.69.35-1,.54l-.21.13c-.34.2-.67.41-1,.64a1.24,1.24,0,0,0-.18.14c-.33.23-.65.47-1,.73h0a16,16,0,0,0-9.12-3.74c-.1,0-.18-.06-.27-.06s-.29,0-.44,0a4.56,4.56,0,0,0-.51,0,16,16,0,0,0-10.32,3.8,15.95,15.95,0,0,0-26.28,12.11c0,.17,0,.35,0,.52v0c0,.12,0,.24,0,.36v6.46c-5.18,1.35-8.46,4.23-8.46,7.58s3.38,6.3,8.46,7.63a16,16,0,0,0,16,15.76h62A16,16,0,0,0,1543.4,134.61Zm-3.33-9.29a3.93,3.93,0,0,0,.73-.39c.16-.1.31-.22.46-.33l.24-.21a4.47,4.47,0,0,0,.44-.43.75.75,0,0,0,.12-.14,5.88,5.88,0,0,0,.76-1.15s0,0,0,0c3.91.88,6.21,2.68,6.21,4.11,0,1.65-3.07,3.83-8.23,4.47-.28,0-.57.08-.87.1-.64.06-1.3.1-2,.1h-.55c-.55,0-1.08,0-1.61-.08l-.62-.05c-.62-.07-1.22-.17-1.81-.28l-.28-.06h0a6.45,6.45,0,0,0,.77-.9,2.39,2.39,0,0,0,.13-.21,4.65,4.65,0,0,0,.41-.71c0-.12.11-.22.15-.34a5.82,5.82,0,0,0,.22-.67c0-.11.07-.22.09-.33a5.79,5.79,0,0,0,.11-1,4.36,4.36,0,0,0-.1-.94h2.91a5.47,5.47,0,0,0,1-.1,1.94,1.94,0,0,0,.33-.07,6.17,6.17,0,0,0,.61-.19A3.65,3.65,0,0,0,1540.07,125.32Zm-86.79-12.54,0-.32,0-.67a12.2,12.2,0,0,1,12.21-12.16,12.06,12.06,0,0,1,8.34,3.32,15.8,15.8,0,0,0-2.7,8.84,1.88,1.88,0,0,0,3.75,0,11.53,11.53,0,0,1,19-9.35,15.78,15.78,0,0,0-3.08,9.35,1.88,1.88,0,0,0,3.76,0,12.1,12.1,0,0,1,3.28-8.28c.26-.27.53-.54.81-.78l.13-.12c.24-.21.5-.4.76-.6l.26-.2c.2-.14.41-.26.63-.4l.44-.26.46-.24.65-.31a2.49,2.49,0,0,0,.29-.11c.28-.11.57-.22.86-.31l.14,0c.34-.1.69-.19,1-.26l.09,0c.37-.07.75-.13,1.12-.17s.84-.06,1.25-.06a12.07,12.07,0,0,1,7.77,2.81,15.8,15.8,0,0,0-3.08,9.35,1.88,1.88,0,0,0,3.76,0,12.08,12.08,0,0,1,3.3-8.28,8.4,8.4,0,0,1,.8-.78l.12-.12c.25-.21.5-.41.76-.6l.27-.2c.2-.14.41-.27.62-.4l.45-.27.46-.23c.22-.1.43-.22.66-.31l.28-.11c.28-.11.56-.22.86-.31l.13,0c.34-.1.69-.19,1-.26l.08,0c.38-.07.74-.13,1.12-.18s.83-.06,1.26-.06a12.2,12.2,0,0,1,12.2,12.17V120l0,.27a.61.61,0,0,1,0,.11,1.61,1.61,0,0,1-.15.61h0a1.84,1.84,0,0,1-.41.55l0,0a2,2,0,0,1-.5.33,2.08,2.08,0,0,1-.7.14h-82.63a1.92,1.92,0,0,1-.68-.14,1.55,1.55,0,0,1-.35-.21l-.22-.14a2.45,2.45,0,0,1-.31-.41l-.09-.12a2.33,2.33,0,0,1-.16-.53,1.84,1.84,0,0,1,0-.25l0-.12Zm61,13h16.64c0,.05.08.1.1.14s0,.09.07.14a1.41,1.41,0,0,1,0,1.36.19.19,0,0,0,0,.09,4.52,4.52,0,0,1-.45.61c-.1.11-.22.23-.34.34s-.28.24-.43.36a9.19,9.19,0,0,1-.83.55c-.09,0-.17.1-.27.15l-.59.29a16.5,16.5,0,0,1-3.75,1.18h0c-.67.13-1.35.23-2.06.3s-1.51.1-2.31.1q-.85,0-1.68-.06l-.46,0q-.66-.06-1.29-.15l-.37-.06a15.34,15.34,0,0,1-1.53-.31,1.25,1.25,0,0,1-.26-.07c-.41-.1-.79-.22-1.17-.35l-.21-.07a6.44,6.44,0,0,0,1-1.71h0a4.87,4.87,0,0,0,.24-.85l0,0a5.62,5.62,0,0,0,0-1.89Zm-22.54,0h18.5a2.39,2.39,0,0,1,.16.22h0a1.64,1.64,0,0,1,.2.72,1.61,1.61,0,0,1-.18.68,2.38,2.38,0,0,1-.18.3,3.16,3.16,0,0,1-.28.39,4.78,4.78,0,0,1-.39.39l-.3.25a6.19,6.19,0,0,1-.62.45,10.23,10.23,0,0,1-1.72.87l-.3.12a15,15,0,0,1-1.93.59l-.19.06-1,.2c-.47.09-1,.17-1.47.23l-.58,0c-.68.06-1.38.1-2.12.1s-1.42,0-2.12-.1l-.47,0c-.67-.07-1.33-.17-2-.29l-.2-.06a15.08,15.08,0,0,1-1.64-.43l-.39-.12a13.71,13.71,0,0,1-1.54-.63.2.2,0,0,1-.08,0s0,0,0-.06a6.12,6.12,0,0,0,.31-.56l.11-.26a3.85,3.85,0,0,0,.19-.47c0-.14.07-.29.11-.43s.06-.23.08-.36a4.39,4.39,0,0,0,.07-.82A5.07,5.07,0,0,0,1491.69,125.82Zm-20.65,0h16.63c0,.07.11.12.13.19a.21.21,0,0,0,0,.06,1.69,1.69,0,0,1,.18.69,1.79,1.79,0,0,1-.17.68,1.43,1.43,0,0,1-.12.21,2.68,2.68,0,0,1-.37.5,3.85,3.85,0,0,1-.35.35c-.1.1-.21.19-.33.29l-.67.48-.2.11a11.71,11.71,0,0,1-1.74.82l-.29.12c-.31.11-.65.21-1,.31l-.6.16q-.59.15-1.23.27c-.44.08-.91.16-1.4.21l-.7.06c-.68.06-1.37.11-2.11.11-.57,0-1.13,0-1.68-.07l-.46,0c-.44,0-.86-.09-1.29-.15-.12,0-.24,0-.36-.06a15,15,0,0,1-1.54-.31,1.34,1.34,0,0,1-.27-.07c-.4-.1-.79-.22-1.16-.35l-.2-.07a6.51,6.51,0,0,0,1-1.7v0a5.9,5.9,0,0,0,.23-.85l0,0a6.11,6.11,0,0,0,.09-.95A5.07,5.07,0,0,0,1471,125.82Zm-19.91,5.09c-4-.88-6.29-2.72-6.29-4.15,0-1.26,1.87-2.93,5.38-3.91a1.29,1.29,0,0,0,.09.16c.1.16.19.32.3.47a4.59,4.59,0,0,0,.49.6l.31.28c.14.13.28.24.43.36l.31.22a5.41,5.41,0,0,0,.79.42l.19.07a6.7,6.7,0,0,0,.76.24l.27,0a5.56,5.56,0,0,0,1,.1H1467c0,.08.12.15.16.22h0a1.42,1.42,0,0,1,0,1.4,2.38,2.38,0,0,1-.18.3,3,3,0,0,1-.27.39q-.18.19-.39.39l-.3.25a6.37,6.37,0,0,1-.63.45,17.26,17.26,0,0,1-7.82,2.15l-.47,0c-.5,0-1,0-1.51,0-.23,0-.46,0-.7,0a22,22,0,0,1-3.16-.35Zm2.18,4.13c.53.05,1.06.09,1.61.11h.53l.65,0h.5l.53,0c.52,0,1,0,1.52-.09h0a20.86,20.86,0,0,0,7.78-2.09h0a17.25,17.25,0,0,0,2,.85l.33.12c.7.23,1.43.44,2.19.61l.39.08a23.1,23.1,0,0,0,2.4.38,1.94,1.94,0,0,0,.34,0,25.68,25.68,0,0,0,2.65.14,21.51,21.51,0,0,0,11.27-2.75,10.41,10.41,0,0,0,1.14.63c.1.06.22.1.33.16.32.15.65.3,1,.43.16.07.34.12.51.19s.62.22.94.31l.59.16c.32.09.64.18,1,.25l.63.13c.34.07.68.13,1,.18l.63.09c.38,0,.77.08,1.16.12l.56,0c.58,0,1.17.06,1.76.06a22.75,22.75,0,0,0,10.34-2.22h0a17.25,17.25,0,0,0,2,.85l.33.12a22.3,22.3,0,0,0,2.18.61l.41.08a22.3,22.3,0,0,0,2.38.38l.34,0c.87.08,1.75.14,2.65.14s1.54-.05,2.28-.1l.21,0a23,23,0,0,0,6.47-1.46c.18.07.4.12.59.19.44.16.88.3,1.35.44l1,.26c.49.11,1,.22,1.49.3s.74.12,1.12.16,1,.11,1.54.14.81.05,1.21.06l.54,0c.62,0,1.23,0,1.83-.05h0a12.22,12.22,0,0,1-12.17,11.29h-62A12.22,12.22,0,0,1,1453.31,135Zm10.31,2a1.87,1.87,0,1,0,1.87,1.88A1.87,1.87,0,0,0,1463.62,137.05Zm9.39,3.74a1.88,1.88,0,1,0,1.87,1.87A1.87,1.87,0,0,0,1473,140.79Zm7.51-3.74a1.87,1.87,0,1,0,1.88,1.88A1.87,1.87,0,0,0,1480.52,137.05Zm5.62,3.74a1.88,1.88,0,1,0,1.88,1.87A1.88,1.88,0,0,0,1486.14,140.79Zm7.51-3.74a1.87,1.87,0,1,0,1.88,1.88A1.87,1.87,0,0,0,1493.65,137.05Zm7.52,3.74a1.88,1.88,0,1,0,1.87,1.87A1.88,1.88,0,0,0,1501.17,140.79Zm7.51-5.61a1.88,1.88,0,1,0,1.88,1.87A1.88,1.88,0,0,0,1508.68,135.18Zm5.63,5.61a1.88,1.88,0,1,0,1.88,1.87A1.88,1.88,0,0,0,1514.31,140.79Zm9.39-3.74a1.87,1.87,0,1,0,1.88,1.88A1.87,1.87,0,0,0,1523.7,137.05Zm7.51,5.61a1.87,1.87,0,1,0-1.87-1.87A1.87,1.87,0,0,0,1531.21,142.66ZM347.15,399.94a1.88,1.88,0,0,0,1.88-1.87A13.14,13.14,0,0,0,335.88,385a1.87,1.87,0,1,0,0,3.74,9.38,9.38,0,0,1,9.39,9.36A1.88,1.88,0,0,0,347.15,399.94Zm5.63,0a1.88,1.88,0,0,0,1.88-1.87,18.77,18.77,0,0,0-18.78-18.71,7.5,7.5,0,0,0-7.51,7.48,1.88,1.88,0,0,0,3.76,0,3.75,3.75,0,0,1,3.75-3.74,15,15,0,0,1,15,15A1.87,1.87,0,0,0,352.78,399.94Zm-16.9-9.35a1.87,1.87,0,1,0,0,3.74,3.76,3.76,0,0,1,3.76,3.74,1.88,1.88,0,0,0,3.75,0A7.5,7.5,0,0,0,335.88,390.59Zm22.54,9.35a1.88,1.88,0,0,0,1.88-1.87,24.41,24.41,0,0,0-24.42-24.33h-3.75a9.38,9.38,0,0,0-9.39,9.36,1.88,1.88,0,0,0,3.75,0,5.63,5.63,0,0,1,5.64-5.61h3.75a20.63,20.63,0,0,1,20.65,20.58A1.88,1.88,0,0,0,358.42,399.94Zm-48.83-65.49a1.87,1.87,0,0,0-1.87,1.87V355a1.88,1.88,0,0,0,3.75,0h9.39a9.37,9.37,0,0,0,7.47-3.74h52.61a5.62,5.62,0,1,0,0-11.23H328.33a9.41,9.41,0,0,0-7.47-3.74h-9.39A1.88,1.88,0,0,0,309.59,334.45Zm20.47,9.36h50.88a1.87,1.87,0,1,1,0,3.74H330.06a9,9,0,0,0,.19-1.88A8.76,8.76,0,0,0,330.06,343.81Zm-4.63-1.39.27.46a6.51,6.51,0,0,1,.57,1.31l0,.1a5.14,5.14,0,0,1,0,2.77l0,.09a6.42,6.42,0,0,1-.57,1.33l-.27.46a5.65,5.65,0,0,1-4.57,2.35h-9.39v-3.73H319a1.88,1.88,0,1,0,0-3.75h-7.51v-3.75h9.39A5.61,5.61,0,0,1,325.43,342.42Zm-19.59-6.1a1.88,1.88,0,0,0-3.75,0V355a1.88,1.88,0,0,0,3.75,0ZM304,358.78a1.88,1.88,0,0,0-1.88,1.87v18.71a1.88,1.88,0,0,0,3.75,0V360.65A1.87,1.87,0,0,0,304,358.78Zm-5.64,1.87a1.87,1.87,0,0,0-1.88,1.87v18.71a1.88,1.88,0,0,0,3.76,0V362.52A1.88,1.88,0,0,0,298.33,360.65Zm1.88-24.33a1.88,1.88,0,0,0-3.76,0v1.87h-7.51a1.88,1.88,0,1,0,0,3.75h7.51v1.87h-7.51a1.87,1.87,0,1,0,0,3.74h7.51v1.87h-7.51a1.87,1.87,0,1,0,0,3.74h7.51v4.28a1.88,1.88,0,0,0,3.76,0Zm54.45,65.49H341.52a1.88,1.88,0,1,0,0,3.75h13.14a16.88,16.88,0,0,1,16.78,15h-1.9a15,15,0,0,0-14.88-13.09H343.39a1.87,1.87,0,1,0,0,3.73h11.27a11.28,11.28,0,0,1,11.1,9.36h-1.91a9.39,9.39,0,0,0-9.19-7.48h-9.39a1.87,1.87,0,1,0,0,3.74h9.39a5.63,5.63,0,0,1,5.29,3.74h-3.42a1.87,1.87,0,0,0-1.87-1.86h-9.39a1.87,1.87,0,0,0-1.88,1.86h-1.91c-.66-27.54-15.8-37.42-30-37.42h-1.88a18.76,18.76,0,0,0-18.77,18.71v9.35a1.88,1.88,0,0,0,3.76,0v-9.35a15,15,0,0,1,15-15h1.88c18.68,0,25.78,17.06,26.26,33.68h-1.88c-.52-20-9.55-31.81-24.38-31.81a13.13,13.13,0,0,0-13.14,13.1v1.87a1.88,1.88,0,0,0,3.76,0v-1.87a9.38,9.38,0,0,1,9.38-9.36c17.45,0,20.33,18.34,20.62,28.07h-1.87c-.54-21.58-10.42-26.19-18.75-26.19a5.63,5.63,0,0,0-5.63,5.61,1.88,1.88,0,0,0,3.75,0,1.88,1.88,0,0,1,1.88-1.87c9.71,0,14.61,7.37,15,22.45h-1.84a1.87,1.87,0,0,0-1.88-1.86h-9.39a1.87,1.87,0,0,0-1.87,1.86h-3.41a5.62,5.62,0,0,1,5.28-3.74h9.39a1.87,1.87,0,1,0,0-3.74h-9.39a9.39,9.39,0,0,0-9.19,7.48h-1.9a11.27,11.27,0,0,1,11.09-9.36h7.52a1.87,1.87,0,1,0,0-3.73h-7.52a15,15,0,0,0-14.89,13.09h-1.89a16.88,16.88,0,0,1,16.78-15h3.76a1.88,1.88,0,1,0,0-3.75h-3.76a20.64,20.64,0,0,0-20.55,18.71h-13l5.72,8.55a14.44,14.44,0,0,0,12,6.42H374.2a14.49,14.49,0,0,0,12.05-6.42l5.71-8.55H375.22A20.66,20.66,0,0,0,354.66,401.81ZM383.12,427a10.69,10.69,0,0,1-8.92,4.75H297.56a10.69,10.69,0,0,1-8.92-4.75l-1.83-2.73H385ZM1713,65.49a1.88,1.88,0,0,0,1.88-1.87,13.13,13.13,0,0,0-13.14-13.1,1.87,1.87,0,1,0,0,3.74,9.38,9.38,0,0,1,9.39,9.36A1.87,1.87,0,0,0,1713,65.49Zm5.63,0a1.88,1.88,0,0,0,1.88-1.87,18.76,18.76,0,0,0-18.77-18.71,7.49,7.49,0,0,0-7.51,7.48,1.88,1.88,0,0,0,3.76,0,3.74,3.74,0,0,1,3.75-3.75,15,15,0,0,1,15,15A1.87,1.87,0,0,0,1718.59,65.49Zm-16.89-9.36a1.87,1.87,0,1,0,0,3.74,3.75,3.75,0,0,1,3.75,3.75,1.88,1.88,0,0,0,3.76,0A7.51,7.51,0,0,0,1701.7,56.13Zm22.53,9.36a1.88,1.88,0,0,0,1.88-1.87,24.41,24.41,0,0,0-24.41-24.33H1698a9.38,9.38,0,0,0-9.39,9.35,1.88,1.88,0,1,0,3.75,0A5.64,5.64,0,0,1,1698,43h3.75a20.65,20.65,0,0,1,20.65,20.59A1.88,1.88,0,0,0,1724.23,65.49Zm-48.82-43a1.87,1.87,0,0,0,1.88-1.87h9.39a9.37,9.37,0,0,0,7.46-3.74h52.62a5.62,5.62,0,1,0,0-11.23h-52.62a9.37,9.37,0,0,0-7.46-3.75h-9.39a1.88,1.88,0,0,0-3.76,0V20.58A1.88,1.88,0,0,0,1675.41,22.45Zm20.46-13.09h50.89a1.87,1.87,0,1,1,0,3.73h-50.89a8.85,8.85,0,0,0,.2-1.87A8.76,8.76,0,0,0,1695.87,9.36Zm-18.58,3.74h7.51a1.87,1.87,0,1,0,0-3.74h-7.51V5.61h9.39A5.57,5.57,0,0,1,1691.24,8l.28.45a6.35,6.35,0,0,1,.57,1.32.36.36,0,0,1,0,.1,5,5,0,0,1,.2,1.38,5.08,5.08,0,0,1-.2,1.39.29.29,0,0,1,0,.09,6.13,6.13,0,0,1-.57,1.32l-.28.46a5.6,5.6,0,0,1-4.56,2.36h-9.39Zm-7.51,9.35a1.86,1.86,0,0,0,1.87-1.87V1.86a1.88,1.88,0,0,0-3.75,0V20.58A1.88,1.88,0,0,0,1669.78,22.45Zm0,24.33a1.87,1.87,0,0,0,1.87-1.87V26.19a1.88,1.88,0,0,0-3.75,0V44.91A1.88,1.88,0,0,0,1669.78,46.78Zm-5.64-20.59a1.88,1.88,0,0,0-1.88,1.88V46.78a1.88,1.88,0,0,0,3.76,0V28.07A1.88,1.88,0,0,0,1664.14,26.19ZM1654.76,15a1.87,1.87,0,1,0,0,3.74h7.5V23a1.88,1.88,0,0,0,3.76,0V1.86a1.88,1.88,0,0,0-3.76,0V3.74h-7.5a1.87,1.87,0,1,0,0,3.74h7.5V9.36h-7.5a1.87,1.87,0,1,0,0,3.73h7.5V15Zm8.61,86.07H1740a14.49,14.49,0,0,0,12-6.42l5.71-8.55H1741a20.68,20.68,0,0,0-20.57-18.72h-13.14a1.88,1.88,0,1,0,0,3.75h13.14a16.89,16.89,0,0,1,16.79,15h-1.9A15,15,0,0,0,1720.47,73h-11.26a1.87,1.87,0,1,0,0,3.74h11.26a11.28,11.28,0,0,1,11.11,9.36h-1.91a9.4,9.4,0,0,0-9.2-7.49h-9.38a1.88,1.88,0,1,0,0,3.75h9.38a5.63,5.63,0,0,1,5.29,3.74h-3.41a1.88,1.88,0,0,0-1.88-1.87h-9.38a1.88,1.88,0,0,0-1.88,1.87h-1.91c-.66-27.54-15.81-37.43-30-37.43h-1.88a18.77,18.77,0,0,0-18.78,18.71v9.36a1.88,1.88,0,0,0,3.76,0V67.35a15,15,0,0,1,15-15h1.88c18.68,0,25.77,17.06,26.26,33.68h-1.88c-.52-20-9.56-31.81-24.38-31.81a13.14,13.14,0,0,0-13.15,13.09v1.88a1.88,1.88,0,0,0,3.76,0V67.35a9.38,9.38,0,0,1,9.39-9.35c17.45,0,20.32,18.34,20.62,28.07H1696c-.54-21.58-10.43-26.2-18.75-26.2a5.64,5.64,0,0,0-5.64,5.62,1.88,1.88,0,0,0,3.76,0,1.88,1.88,0,0,1,1.88-1.87c9.71,0,14.61,7.36,15,22.45h-1.84a1.88,1.88,0,0,0-1.88-1.87h-9.39a1.87,1.87,0,0,0-1.87,1.87h-3.41a5.61,5.61,0,0,1,5.28-3.74h9.39a1.88,1.88,0,1,0,0-3.75h-9.39a9.42,9.42,0,0,0-9.2,7.49h-1.89a11.26,11.26,0,0,1,11.09-9.36h7.52a1.87,1.87,0,1,0,0-3.74h-7.52a15,15,0,0,0-14.89,13.1h-1.9a16.91,16.91,0,0,1,16.79-15h3.76a1.88,1.88,0,1,0,0-3.75h-3.76a20.67,20.67,0,0,0-20.56,18.72h-13l5.73,8.55A14.42,14.42,0,0,0,1663.37,101Zm87.39-11.23-1.82,2.74A10.74,10.74,0,0,1,1740,97.3h-76.65a10.74,10.74,0,0,1-8.92-4.75l-1.82-2.74ZM464.1,529.73a1.88,1.88,0,1,0,2.66,0A1.88,1.88,0,0,0,464.1,529.73ZM458.79,535a1.88,1.88,0,1,0,2.66,0A1.88,1.88,0,0,0,458.79,535Zm23.91,13.25a1.88,1.88,0,0,0,0,2.65,1.9,1.9,0,0,0,2.66,0,1.88,1.88,0,0,0-2.66-2.65Zm-5.31,5.29a1.88,1.88,0,1,0,2.66,0A1.88,1.88,0,0,0,477.39,553.56Zm-2.85-28.93,13.59-13.55a9.45,9.45,0,0,0,11.82-1.2l17.26-17.19a1.88,1.88,0,0,0-2.66-2.65l-17.26,17.2a5.65,5.65,0,0,1-6.39,1.08l21-20.92a1.88,1.88,0,1,0-2.66-2.65l-21,20.92a5.59,5.59,0,0,1,1.08-6.37l17.26-17.2a1.87,1.87,0,0,0,0-2.65,1.89,1.89,0,0,0-2.66,0l-17.26,17.2a9.36,9.36,0,0,0-1.2,11.78L471.88,522a7.53,7.53,0,0,0-9.1,1.13l-29.22,29.12a7.5,7.5,0,0,0,10.62,10.58L473.4,533.7A7.48,7.48,0,0,0,474.54,524.63Zm-3.8,6.42-29.21,29.11a3.75,3.75,0,1,1-5.31-5.29l29.21-29.11a3.75,3.75,0,1,1,5.31,5.29Zm50-4.8c6.37-6.28,11.4-11.24,11.42-16.87,0-3-1.4-5.84-4.31-8.74a1.88,1.88,0,0,0-2.66,0L486.69,539a1.71,1.71,0,0,0-.33.48,7.5,7.5,0,0,0-5,2.16l-29.22,29.11a7.5,7.5,0,0,0,10.62,10.58L492,552.23a7.46,7.46,0,0,0,2.1-6.21c7.78-1,14.28-7.45,23.7-16.86Zm-31.4,23.34L460.13,578.7a3.75,3.75,0,1,1-5.31-5.29L484,544.3a3.74,3.74,0,1,1,5.3,5.29Zm3.26-7.2a6.94,6.94,0,0,0-.6-.74,7.55,7.55,0,0,0-1.52-1.14l35.95-35.83a7.55,7.55,0,0,1,2,4.69c0,4.07-4.55,8.55-10.3,14.22l-3,2.93C505.81,535.83,499.56,542.05,492.6,542.39ZM513.71,348.9h0a1.88,1.88,0,0,0,1.88-1.87v-6.84c0-.29,0-.56-.05-.83l.58.57a1.88,1.88,0,0,0,2.66,0l.61-.6c0,.28,0,.56,0,.86V347a1.87,1.87,0,0,0,1.87,1.87h6.87A11.9,11.9,0,0,0,540,337v-6.85a1.87,1.87,0,0,0-1.87-1.87h-6.88a11.83,11.83,0,0,0-4.39.85,11.84,11.84,0,0,0-3.22-10.85l-4.86-4.85a1.89,1.89,0,0,0-2.66,0l-4.86,4.85A11.85,11.85,0,0,0,508,329.15a11.87,11.87,0,0,0-4.36-.83h-6.87a1.87,1.87,0,0,0-1.88,1.86V337a11.9,11.9,0,0,0,11.91,11.86Zm17.54-16.84h5v5a8.15,8.15,0,0,1-8.16,8.12h-5v-5A8.15,8.15,0,0,1,531.25,332.06ZM513.92,321l3.53-3.52L521,321a8.13,8.13,0,0,1,0,11.49L517.45,336l-3.53-3.52A8.11,8.11,0,0,1,513.92,321ZM498.69,337v-5h5a8.15,8.15,0,0,1,8.15,8.13v5h-5A8.15,8.15,0,0,1,498.69,337Zm24.41,26.4a5.63,5.63,0,0,0-5.63,5.62h3.75a1.88,1.88,0,0,1,3.76,0h3.75A5.63,5.63,0,0,0,523.1,363.44Zm15,1.87a5.64,5.64,0,0,0-5.63,5.62h3.76a1.88,1.88,0,0,1,3.75,0h3.75A5.64,5.64,0,0,0,538.12,365.31Zm14.11-7.11L558.71,334a1.89,1.89,0,0,0,.06-.47,3.75,3.75,0,0,0-3.75-3.75h-3.76a3.75,3.75,0,0,0-1.88.51v-26.7a1.88,1.88,0,0,0-1.87-1.88H476.16a1.88,1.88,0,0,0-1.88,1.88v86.07a1.89,1.89,0,0,0,1.13,1.72L488.52,397a1.89,1.89,0,0,0,.74.16h28.81a35.24,35.24,0,0,0,54-29.71v-.21C572.1,361.63,560.51,359.22,552.23,358.2Zm-64.85,34.21-9.34-4v-83h9.34Zm3.81,1V305.44h54.44v34.84l-4.58,17.1c-1.38,0-2.79-.07-4.23-.07-12.19,0-35.27,2.07-35.27,9.91v.2a33.91,33.91,0,0,0,.2,3.65c0,.36.12.7.16,1.06.11.84.23,1.68.4,2.49.1.47.24.92.35,1.38.18.69.34,1.38.55,2.05s.39,1.05.59,1.58.41,1.14.65,1.7.53,1.11.81,1.66.47,1,.74,1.45.66,1.11,1,1.66.55.88.85,1.31.75,1,1.15,1.52.67.86,1,1.27.79.89,1.21,1.32.84.87,1.27,1.29c.2.19.38.39.58.57Zm45.64,5.44a31.39,31.39,0,0,1-17.37-5.23c-.24-.15-.47-.32-.71-.48-.53-.38-1.06-.77-1.57-1.18l-.56-.44c-.67-.56-1.31-1.14-1.93-1.75l-.34-.35c-.61-.62-1.2-1.26-1.76-1.93l-.1-.12c-.59-.72-1.16-1.48-1.7-2.25a3,3,0,0,0-.19-.3,31.83,31.83,0,0,1-2.69-4.94c-.07-.15-.13-.28-.19-.43-.35-.85-.67-1.71-1-2.59,0-.11-.06-.22-.1-.33-.25-.8-.45-1.62-.63-2.44,0-.17-.08-.33-.11-.5-.09-.43-.13-.86-.21-1.3,7.22,3.73,22.11,4.86,31.1,4.86s23.9-1.13,31.11-4.86A31.5,31.5,0,0,1,536.83,398.82Zm0-25.44c-20.79,0-31.51-4.32-31.51-6.16s10.72-6.17,31.51-6.17c1.12,0,2.19.05,3.27.08l-.36,1.39a1.87,1.87,0,0,0,1.37,2.27,1.82,1.82,0,0,0,.46.06,1.89,1.89,0,0,0,1.82-1.42l.92-3.64L551.2,334a1.52,1.52,0,0,0,.06-.47H555L548,359.34h0l-1.12,4.28a1.88,1.88,0,0,0,1.35,2.29,2.4,2.4,0,0,0,.46.05,1.89,1.89,0,0,0,1.83-1.4l.7-2.71c12.82,1.51,17.08,4.47,17.08,5.36C568.34,369.06,557.63,373.38,536.82,373.38ZM1664.68,777.44a1.88,1.88,0,0,0-2.39,1.17,3.29,3.29,0,0,1-4.19,2,7.1,7.1,0,0,0-8.95,4.41,1.87,1.87,0,0,0,1.18,2.38,2,2,0,0,0,.59.1,1.88,1.88,0,0,0,1.78-1.27,3.32,3.32,0,0,1,4.19-2.06,7.08,7.08,0,0,0,9-4.4A1.88,1.88,0,0,0,1664.68,777.44Zm4.43-13a1.86,1.86,0,0,0-2.37,1.17,3.32,3.32,0,0,1-4.19,2.06,7.07,7.07,0,0,0-9,4.4,1.87,1.87,0,0,0,1.18,2.38,2.09,2.09,0,0,0,.6.1,1.9,1.9,0,0,0,1.78-1.27,3.26,3.26,0,0,1,1.67-1.9,3.29,3.29,0,0,1,2.52-.16,7.07,7.07,0,0,0,9-4.4A1.87,1.87,0,0,0,1669.11,764.4Zm-.12-10.79a2.49,2.49,0,0,1-1.23,1.4,2.43,2.43,0,0,1-1.87.12A6.22,6.22,0,0,0,1658,759a1.88,1.88,0,0,0,1.17,2.38,2.22,2.22,0,0,0,.61.1,1.88,1.88,0,0,0,1.78-1.27,2.45,2.45,0,0,1,3.1-1.53,6.21,6.21,0,0,0,4.73-.3,6.14,6.14,0,0,0,3.12-3.55,1.88,1.88,0,0,0-3.55-1.21Zm3.66-12.37a7.7,7.7,0,0,0-8-.08c-5.61,2.89-9.62,11.36-12.84,18.18-.19.39-.37.78-.55,1.16a10.82,10.82,0,0,0-6-7.51,9,9,0,0,0-7-6.9q-.06-.29-.15-.57a6.39,6.39,0,0,0-9.35-3.75,6.81,6.81,0,0,0-3.33-.87,6.93,6.93,0,0,0-6.72,5.31,8.44,8.44,0,0,0-6.22,8,9.36,9.36,0,0,0-7,9.07,9.16,9.16,0,0,0,.65,3.39,7.33,7.33,0,0,0-1.65,4.64,7.41,7.41,0,0,0,.61,2.92,10,10,0,0,0-7.48-3.6,1.88,1.88,0,0,0,.06,3.75h.18a6.53,6.53,0,0,1,4.59,2.51c-3,.85-6.57,2.25-8.24,5.39a9.51,9.51,0,0,0-.46,6.9,3.23,3.23,0,0,0-.47,1.84l3.19,45.26a10.69,10.69,0,0,0,10.69,10.12h52.71a10.67,10.67,0,0,0,10.68-10.09l3.27-46.83v0a2.42,2.42,0,0,0-1.06-2.15,2.7,2.7,0,0,0-1.07-.41,131.46,131.46,0,0,0,6.07-35.19C1677.9,748.17,1676.16,743.43,1672.65,741.24Zm-62.59,24.9a5.62,5.62,0,0,1,4.66-8.45l2.28-.1-.53-2.21a4.59,4.59,0,0,1,4.16-5.71l1.73-.12v-1.87a3.16,3.16,0,0,1,3.16-3,3.09,3.09,0,0,1,2.09.81l1.32,1.19,1.26-1.24a2.64,2.64,0,0,1,4.4,1.16,2.4,2.4,0,0,1,.09,1l-.22,2.09h2.12a5.16,5.16,0,0,1,5.13,4.79l.09,1.23,1.17.41a7.1,7.1,0,0,1,4.79,6.89,6.77,6.77,0,0,1-1.23,3.72,19,19,0,0,0-3.75-2.38l-.86-.46a.46.46,0,0,1-.22-.33,1.11,1.11,0,0,1,.27-.83,4,4,0,0,0,.88-3.45l-.23-1a4,4,0,0,0-1.75-2.52,4,4,0,0,0-3-.53l-.5.12h0l-5.51,1.19-5.38,1.17a4,4,0,0,0-2.52,1.75,4,4,0,0,0-.54,3l.12.51h0l.11.51a4,4,0,0,0,2.32,2.8,1.2,1.2,0,0,1,.63.6c0,.15,0,.21-.1.4l-.58.76-.65.82a3.06,3.06,0,0,1-.21.29c-.15.22-.31.43-.46.66s-.17.24-.25.37a5.84,5.84,0,0,0-.41.68c-.09.13-.16.26-.24.4s-.27.54-.4.82c0,.12-.11.24-.15.36a10.27,10.27,0,0,0-.43,1.29c0,.07,0,.14,0,.22-.08.38-.16.77-.21,1.18,0,.17,0,.34,0,.5s0,.44,0,.67l0,0-.08-.1c-.32-.43-.66-.83-1-1.2-.1-.12-.22-.23-.32-.35-.27-.29-.55-.57-.83-.83l-.27-.27a11.46,11.46,0,0,0-1.06-.84c-.1-.08-.2-.13-.3-.21l-.8-.48-.4-.21a7.48,7.48,0,0,0-.84-.35l-.28-.11a8,8,0,0,0-.94-.23h-.1l-.19,0c-.22,0-.42,0-.64,0s-.3,0-.45,0h-.14a8.12,8.12,0,0,0-.85.07l-.42,0c-.37.08-.74.17-1.09.28l-.16,0a11.25,11.25,0,0,0-2.65,1.3,3.55,3.55,0,0,1-.27-1.33,3.71,3.71,0,0,1,1.35-2.83l1.23-1Zm26.6,14.83a11.05,11.05,0,0,1-9.2,2.22l-1.14-5.19c-.77-3.52.91-5.65,2.53-7.71l.63-.82h0a4.17,4.17,0,0,0,.4-.6,4.12,4.12,0,0,0,.35-2.8l7.83-1.7a6.13,6.13,0,0,0,.2.7,4.2,4.2,0,0,0,1.86,2.06l.89.48.76.41.37.2c.22.12.44.27.65.4a4.35,4.35,0,0,1,.55.36,7,7,0,0,1,.61.46l.51.45c.18.18.35.36.51.55a6.28,6.28,0,0,1,.8,1.14c-.8,1.75-1.55,3.53-2.27,5.33-.11.28-.23.56-.34.83A19.17,19.17,0,0,0,1636.66,781Zm4.77,1.43-.51,1.47-.37,1c-.54,1.67-1.07,3.35-1.56,5l-1.25-.74a9.62,9.62,0,0,0-5-1.39h-.07c-.2,0-.39,0-.6,0l-.43,0a9.76,9.76,0,0,0-3,.8l-.35-1.64c.54.05,1.08.08,1.58.08a14.51,14.51,0,0,0,8.94-3.11A23.47,23.47,0,0,1,1641.43,782.4Zm-13.65-21.21,5.51-1.2,4.86-1.06a.41.41,0,0,1,.15,0,.77.77,0,0,1,.66,1.19.81.81,0,0,1-.48.34l-10.37,2.26a.77.77,0,1,1-.33-1.51Zm-30.21,22.86c.78-1.48,2.72-2.63,6.07-3.58a10.12,10.12,0,0,0,4.19-2.4c.54-.51,1-.94,1.53-1.33a8.3,8.3,0,0,1,4-2h.09a3.55,3.55,0,0,1,1.08,0l.28.07a4.48,4.48,0,0,1,.52.16c.11,0,.22.11.34.16a4.52,4.52,0,0,1,.49.25l.38.26c.15.11.31.2.46.33a5.11,5.11,0,0,1,.42.39,4,4,0,0,1,.44.39c.15.15.32.34.47.52l.4.43c.17.21.35.45.53.69l.35.44c.2.28.41.6.61.92.09.14.19.26.28.41.29.46.59,1,.9,1.49a14.14,14.14,0,0,1,1.23,9.15l-.29,0a5.79,5.79,0,0,1-2-.72l-1.34-.8a9.6,9.6,0,0,0-5-1.38h-.07a9.75,9.75,0,0,0-5.05,1.38l-.65.39a7.11,7.11,0,0,1-7.37,0l-2.52-1.52a3.56,3.56,0,0,0-1.07-.4A5.37,5.37,0,0,1,1597.57,784.05Zm69.28,52.05a6.94,6.94,0,0,1-6.93,6.58H1607.2a6.94,6.94,0,0,1-6.93-6.61l-3.13-44.24,1.64,1a11.28,11.28,0,0,0,11.48,0l.66-.39a5.74,5.74,0,0,1,6,0l1.34.8a9.73,9.73,0,0,0,5.51,1.34l.51,0h.06a9.72,9.72,0,0,0,3.7-1.21,1.8,1.8,0,0,0,.33-.1l1.34-.8a5.76,5.76,0,0,1,6,0l1.34.8a9.62,9.62,0,0,0,4.59,1.35h.1a9,9,0,0,0,1.64-.08,9.37,9.37,0,0,0,.92-.19,3.69,3.69,0,0,0,.45-.11,9.26,9.26,0,0,0,2.41-1l1.34-.8a5.68,5.68,0,0,1,6,0l1.34.8a9.75,9.75,0,0,0,5,1.37h.05a9.7,9.7,0,0,0,4.91-1.32l3.69-1.63a1.59,1.59,0,0,0,.21-.15l.29-.13Zm1.17-49.88c-.12.39-.39,1.19-.77,2.27L1664,789.9l-.2.11a5.8,5.8,0,0,1-6,0l-1.34-.8a9.65,9.65,0,0,0-5-1.38h-.06a9.73,9.73,0,0,0-5,1.38l-1.34.8a6,6,0,0,1-2.41.76c0-.17.11-.33.16-.48q.77-2.62,1.64-5.17c.22-.65.45-1.29.68-1.93.48-1.36,1-2.69,1.51-4,.23-.59.46-1.19.7-1.78a124.46,124.46,0,0,1,5.43-11.54c.74-1.39,1.56-3.09,2.42-4.91,2.81-6,6.68-14.15,11.16-16.46a4.09,4.09,0,0,1,4.3-.07c2.18,1.36,3.46,4.8,3.4,7.21A128,128,0,0,1,1668,786.22Zm-63.44,34.34h13.15a1.87,1.87,0,1,0,0-3.74h-13.15a1.87,1.87,0,1,0,0,3.74Zm0,7.48h16.9a1.87,1.87,0,1,0,0-3.74h-16.9a1.87,1.87,0,1,0,0,3.74Zm20.66,3.74h-20.66a1.88,1.88,0,0,0,0,3.75h20.66a1.88,1.88,0,1,0,0-3.75Zm11.26,0h-3.76a1.88,1.88,0,0,0,0,3.75h3.76a1.88,1.88,0,1,0,0-3.75ZM180.43,819.26h-.36a18.62,18.62,0,0,0-8.73-26.5,18.77,18.77,0,0,0-37.53,0,5.13,5.13,0,0,0-5.38,2l-.47.66a1.38,1.38,0,0,1-1.7.47l-.74-.35a5.15,5.15,0,0,0-7.28,4.18l-.08.82a3.62,3.62,0,0,1-.32,1.11,1.4,1.4,0,0,1-.78-1.12l-.07-.81a5,5,0,0,0-2.19-3.69l5.9-8.36A7.35,7.35,0,0,0,122,782.1a7.45,7.45,0,0,0-3.07-4.84,7.53,7.53,0,0,0-10.46,1.81L97.61,794.36a7.52,7.52,0,0,0-.85,1.64,1.24,1.24,0,0,1-.55-.09l-.74-.35a5.18,5.18,0,0,0-4.72.21,5.12,5.12,0,0,0-2.55,4l-.07.82a1.39,1.39,0,0,1-1.26,1.24l-.8.07a5.2,5.2,0,0,0-4,2.54,5.11,5.11,0,0,0-.21,4.73l.33.72a1.39,1.39,0,0,1-.45,1.71l-.67.46a5.13,5.13,0,0,0-2.18,4.2,5.06,5.06,0,0,0,1,3H78.17a4.41,4.41,0,0,0-3.24,1.41A4.49,4.49,0,0,0,73.72,824c1.12,16.37,11.57,24.59,26.91,31.9a8.62,8.62,0,0,1,4,3.82,5.62,5.62,0,0,1-.36,5.46,4.26,4.26,0,0,0,3.65,6.45h42.8a4.27,4.27,0,0,0,3.64-6.49,5.61,5.61,0,0,1-.35-5.42,8.64,8.64,0,0,1,4-3.82c15.34-7.31,25.79-15.53,26.9-31.89a4.5,4.5,0,0,0-1.2-3.36A4.45,4.45,0,0,0,180.43,819.26ZM168,803.72c.21-.3.4-.6.58-.91.1-.15.19-.3.28-.45.2-.33.37-.67.54-1l.2-.4c.17-.37.34-.75.49-1.13a2,2,0,0,1,.09-.26,18.92,18.92,0,0,0,.82-2.81,14.89,14.89,0,0,1,4.57,22.51h-9.83v-7.49a1.88,1.88,0,0,0-3.75,0v7.49h-6.64a4.07,4.07,0,0,0,.4-.65l0,0a5.68,5.68,0,0,0,.39-1c0-.09,0-.17.06-.27a4.91,4.91,0,0,0,.13-1.08,5.09,5.09,0,0,0-2.18-4.19l-.43-.3c.15,0,.29,0,.45,0l.66-.08c.38,0,.74-.1,1.11-.16l.64-.12c.39-.09.78-.19,1.15-.3l.52-.15c.53-.16,1.06-.36,1.57-.56l.42-.21c.37-.16.74-.34,1.1-.53.2-.1.39-.22.59-.33s.57-.33.85-.52.41-.27.61-.42.5-.36.74-.55.41-.31.6-.48.45-.4.67-.6l.57-.54c.21-.21.4-.43.59-.66a16.79,16.79,0,0,0,1.07-1.3C167.74,804,167.87,803.88,168,803.72Zm-15.4-25.63a15,15,0,0,1,15,15c0,.28,0,.56,0,.84h0a14.69,14.69,0,0,1-1.4,5.51l0,.06a12,12,0,0,1-.6,1.12l-.08.14a11.09,11.09,0,0,1-.65,1l-.14.21-.67.83-.22.26c-.22.24-.45.48-.69.71a4.11,4.11,0,0,1-.3.29q-.33.32-.69.6l-.38.3c-.23.18-.47.34-.7.51l-.44.29c-.23.15-.48.28-.72.42l-.5.27c-.23.12-.48.23-.73.33a4.75,4.75,0,0,1-.56.25l-.72.25c-.2.07-.4.14-.62.2s-.47.12-.72.18-.44.11-.67.15l-.7.11-.74.09h-.13v-.06a6.23,6.23,0,0,0,.08-1l0-.33a5.55,5.55,0,0,0-.13-.8c0-.1-.05-.2-.08-.3a4.7,4.7,0,0,0-.44-1,5.17,5.17,0,0,0-4-2.54l-.81-.07a1.42,1.42,0,0,1-1.12-.79l4-4a1.86,1.86,0,0,0,0-2.65,1.89,1.89,0,0,0-2.66,0l-2.67,2.68a5.2,5.2,0,0,0-1.44-1.28,4.74,4.74,0,0,0-1.19-.49c-.13,0-.28,0-.42-.08a6,6,0,0,0-.84-.11h-.11a4.48,4.48,0,0,0-.64.07l-.41,0a5.79,5.79,0,0,0-1.11.37l-.74.34a1.44,1.44,0,0,1-.59.11h0a1.51,1.51,0,0,1-.58-.18,14.09,14.09,0,0,1-.28-2.78A15,15,0,0,1,152.58,778.09Zm-30.68,22.8.08-.81a1.37,1.37,0,0,1,2-1.12l.74.35a5.18,5.18,0,0,0,6.36-1.7l.46-.67a1.43,1.43,0,0,1,2.27,0l.46.66a5.14,5.14,0,0,0,4.06,2.15h.05a5.31,5.31,0,0,0,.69,0,1.67,1.67,0,0,0,.31-.05c.16,0,.31,0,.46-.09a4.75,4.75,0,0,0,.8-.28l.73-.34a1.38,1.38,0,0,1,1.28,0,1.33,1.33,0,0,1,.68,1.07l.08.81a5.13,5.13,0,0,0,4.65,4.64l.81.07a1.34,1.34,0,0,1,1.07.69,1.37,1.37,0,0,1,.07,1.26l-.35.74s0,.07,0,.1a5,5,0,0,0,.27,4.59l0,.07c.11.16.21.33.34.49l.2.25c.1.11.18.22.28.31a6.4,6.4,0,0,0,.62.53l.68.46a1.42,1.42,0,0,1,.58,1.14,1.38,1.38,0,0,1-.58,1.12l-.68.47h0a5.54,5.54,0,0,0-.68.59,2.68,2.68,0,0,0-.23.26l-.32.42-.12.16H125.3c.14-.21.28-.43.4-.65l0,0a5.09,5.09,0,0,0,.37-1,1.63,1.63,0,0,0,.07-.26,5.4,5.4,0,0,0,.13-1.07h0a4.06,4.06,0,0,0-.09-.7,4.6,4.6,0,0,0-.06-.52,5,5,0,0,0-.71-1.55,5.24,5.24,0,0,0-1.32-1.42l-.66-.46a1.37,1.37,0,0,1-.46-1.7l.35-.74a5.59,5.59,0,0,0,.35-1.12,2.09,2.09,0,0,0,0-.34,7.36,7.36,0,0,0,.06-.81c0-.14,0-.27,0-.42a5.54,5.54,0,0,0-.12-.71c0-.16-.09-.3-.14-.45a3.22,3.22,0,0,0-.12-.37,2.39,2.39,0,0,0-.13-.21,1.85,1.85,0,0,0-.13-.29,3.73,3.73,0,0,0-.35-.46c-.1-.13-.18-.27-.29-.4a5.9,5.9,0,0,0-.75-.66l-.23-.2A7.81,7.81,0,0,0,121.9,800.89Zm-21.82-3a3.55,3.55,0,0,1,.6-1.38l10.82-15.31a3.77,3.77,0,0,1,5.23-.9,3.76,3.76,0,0,1,.91,5.22l-7.32,10.36-3.5,4.93a3.72,3.72,0,0,1-2.43,1.53,3.79,3.79,0,0,1-2.8-.62h0a3.67,3.67,0,0,1-.7-.66l-.14-.19a3.32,3.32,0,0,1-.46-.79s0,0,0-.05a3.69,3.69,0,0,1-.21-.93,2,2,0,0,1,0-.24A4.47,4.47,0,0,1,100.08,797.91ZM83.24,815.09l.66-.46a5.11,5.11,0,0,0,1.71-6.34l-.34-.73a1.33,1.33,0,0,1,0-1.27,1.38,1.38,0,0,1,1.08-.69l.8-.07a5.15,5.15,0,0,0,4.67-4.64l.07-.81a1.37,1.37,0,0,1,2-1.12l.74.34a5,5,0,0,0,1.68.43l0,.12a.31.31,0,0,0,0,.1,6.29,6.29,0,0,0,.17.62c.06.24.12.49.2.72a6.37,6.37,0,0,0,.37.79c.1.18.17.37.27.53a6.57,6.57,0,0,0,.63.84c.1.11.18.24.28.35a7.85,7.85,0,0,0,1.14,1,9,9,0,0,0,1.18.65l.38.16a6.92,6.92,0,0,0,.88.28,3.28,3.28,0,0,0,.45.11,6.3,6.3,0,0,0,1,.12l.36,0h.1A7.15,7.15,0,0,0,105,806a7.46,7.46,0,0,0,4.86-3l2.76-3.91a1.3,1.3,0,0,1,.6,1l.07.81a5.14,5.14,0,0,0,4.66,4.64l.81.07a1.58,1.58,0,0,1,.48.15c.07,0,.15.08.21.13a1.37,1.37,0,0,1,.26.28.9.9,0,0,1,.15.19,1.56,1.56,0,0,1,.15.55v0a1.27,1.27,0,0,1-.12.63l-.35.74a5,5,0,0,0-.44,2.61v0a4.8,4.8,0,0,0,.14.83,5.09,5.09,0,0,0,2,2.86l.46.32.2.14a1.38,1.38,0,0,1,.6,1.14,1.34,1.34,0,0,1-.16.63c0,.06-.09.09-.13.14a1.15,1.15,0,0,1-.31.35l0,0-.64.45a4.64,4.64,0,0,0-.71.62,2.15,2.15,0,0,0-.19.22c-.14.16-.27.33-.4.51s0,.05-.06.09H85.28a5,5,0,0,0-1.38-1.44l-.66-.47a1.33,1.33,0,0,1-.58-1.12A1.36,1.36,0,0,1,83.24,815.09Zm73.12,37.44a12.5,12.5,0,0,0-5.71,5.49,9.4,9.4,0,0,0,.49,9.11.51.51,0,0,1-.45.77H107.9a.51.51,0,0,1-.45-.25.56.56,0,0,1,0-.56A9.33,9.33,0,0,0,108,858a12.55,12.55,0,0,0-5.7-5.48c-14.56-6.93-23.79-14.16-24.77-28.76a.77.77,0,0,1,.19-.56.67.67,0,0,1,.5-.21H180.43a.68.68,0,0,1,.51.21.73.73,0,0,1,.19.56C180.14,838.37,170.92,845.6,156.36,852.53Zm-13.17,2.28H126.84a1.87,1.87,0,0,0,0,3.74h16.35a1.87,1.87,0,0,0,0-3.74ZM115,858.55h6.35a1.87,1.87,0,1,0,0-3.74H115a1.87,1.87,0,1,0,0,3.74Zm28.16,1.87H115a1.88,1.88,0,1,0,0,3.75h28.16a1.88,1.88,0,0,0,0-3.75Zm5.4-68.68a1.88,1.88,0,0,0,2.66,0,1.86,1.86,0,0,0,0-2.65l-5.31-5.29a1.89,1.89,0,0,0-2.66,0,1.86,1.86,0,0,0,0,2.64Zm10.63,10.58a1.85,1.85,0,0,0,1.32.55,1.88,1.88,0,0,0,1.33-3.2l-5.31-5.29A1.88,1.88,0,1,0,153.9,797Zm-4-10a1.89,1.89,0,0,0,1.33-.55l5.31-5.3a1.87,1.87,0,1,0-2.65-2.64l-5.32,5.29a1.88,1.88,0,0,0,0,2.65A1.91,1.91,0,0,0,155.23,792.29ZM165.72,808a1.88,1.88,0,0,0,1.88,1.87h7.51a1.87,1.87,0,1,0,0-3.74H167.6A1.87,1.87,0,0,0,165.72,808ZM131,809a1.85,1.85,0,0,0,1.33-.55l2.81-2.8a1.87,1.87,0,0,0-2.65-2.65l-2.81,2.81A1.87,1.87,0,0,0,131,809Zm9,4.13a1.88,1.88,0,0,0,2.66,0,1.85,1.85,0,0,0,0-2.64l-1.88-1.87a1.89,1.89,0,0,0-2.66,0,1.86,1.86,0,0,0,0,2.64Zm-7.51-.77-1.88,1.87a1.88,1.88,0,0,0,0,2.65,1.92,1.92,0,0,0,1.34.55,1.89,1.89,0,0,0,1.32-.55l1.87-1.87a1.87,1.87,0,1,0-2.65-2.65ZM466.26,120.49a8.65,8.65,0,0,1,4,3.81,5.61,5.61,0,0,1-.36,5.47,4.26,4.26,0,0,0,3.65,6.45h42.8a4.26,4.26,0,0,0,3.64-6.49,5.63,5.63,0,0,1-.35-5.43,8.72,8.72,0,0,1,4-3.81C539,113.18,549.4,105,550.51,88.6a4.53,4.53,0,0,0-1.2-3.37,4.46,4.46,0,0,0-3.24-1.4h-.37A18.6,18.6,0,0,0,537,57.33a18.77,18.77,0,0,0-37.53,0,5.13,5.13,0,0,0-5.38,2l-.47.66a1.37,1.37,0,0,1-1.7.47l-.74-.35a5.15,5.15,0,0,0-7.28,4.18l-.07.82a4,4,0,0,1-.33,1.11,1.4,1.4,0,0,1-.78-1.12l-.07-.81a5,5,0,0,0-2.19-3.69l5.9-8.36a7.35,7.35,0,0,0,1.26-5.59,7.45,7.45,0,0,0-3.07-4.84,7.53,7.53,0,0,0-10.46,1.81L463.24,58.93a8,8,0,0,0-.85,1.64,1.18,1.18,0,0,1-.54-.09l-.75-.35a5.18,5.18,0,0,0-4.72.21,5.12,5.12,0,0,0-2.55,4l-.07.82a1.39,1.39,0,0,1-1.26,1.24l-.8.07a5.2,5.2,0,0,0-4,2.54,5.11,5.11,0,0,0-.21,4.73l.34.72a1.4,1.4,0,0,1-.46,1.71l-.67.46a5.13,5.13,0,0,0-2.18,4.2,5.06,5.06,0,0,0,1,3H443.8a4.47,4.47,0,0,0-4.44,4.77C440.47,105,450.92,113.18,466.26,120.49Zm67.35-52.2a9.93,9.93,0,0,0,.58-.91l.29-.45c.19-.33.36-.67.53-1l.2-.4c.17-.37.34-.75.49-1.13a2,2,0,0,1,.09-.26,17.79,17.79,0,0,0,.82-2.81,14.89,14.89,0,0,1,4.57,22.51h-9.83V76.34a1.88,1.88,0,0,0-3.75,0v7.49H521a4.07,4.07,0,0,0,.4-.65l0,0a5.68,5.68,0,0,0,.39-1,2.61,2.61,0,0,0,.06-.27A4.91,4.91,0,0,0,522,80.8a5.09,5.09,0,0,0-2.18-4.19l-.43-.3c.15,0,.29,0,.45,0l.67-.08c.37,0,.73-.1,1.1-.16l.64-.12c.39-.09.78-.19,1.15-.31l.52-.14c.53-.17,1.06-.36,1.58-.57l.41-.2c.37-.16.74-.34,1.1-.53.2-.1.39-.22.59-.34s.57-.32.85-.51.41-.27.61-.42.51-.36.74-.55l.6-.48c.23-.19.45-.4.67-.6l.57-.54c.21-.21.4-.43.59-.66a16.79,16.79,0,0,0,1.07-1.3C533.37,68.61,533.5,68.45,533.61,68.29Zm-15.4-25.63a15,15,0,0,1,15,15c0,.28,0,.56-.05.84h0a14.69,14.69,0,0,1-1.4,5.51l0,.06a12,12,0,0,1-.6,1.12l-.08.14a11.09,11.09,0,0,1-.65,1c0,.07-.09.13-.14.21l-.67.83-.22.26c-.22.24-.45.48-.69.71l-.29.29c-.23.21-.46.41-.7.6l-.38.3c-.23.18-.46.34-.7.51l-.44.29c-.23.15-.48.28-.72.42L525,71c-.23.12-.48.23-.73.33a5.45,5.45,0,0,1-.55.25c-.24.09-.48.17-.73.24a6.26,6.26,0,0,1-.61.21c-.24.07-.48.12-.73.18s-.44.11-.67.15l-.7.11-.74.09h-.13v-.08a5.84,5.84,0,0,0,.08-1l0-.33a5.55,5.55,0,0,0-.13-.8c0-.1,0-.2-.08-.3a4.7,4.7,0,0,0-.44-1,5.17,5.17,0,0,0-4-2.54l-.81-.07a1.42,1.42,0,0,1-1.12-.79l4-4a1.86,1.86,0,0,0,0-2.65,1.89,1.89,0,0,0-2.66,0l-2.67,2.68a4.92,4.92,0,0,0-1.44-1.28,5.1,5.1,0,0,0-1.18-.5l-.43-.07a6,6,0,0,0-.84-.11h-.11a4.48,4.48,0,0,0-.64.07,2.85,2.85,0,0,0-.41,0,4.67,4.67,0,0,0-1.11.37l-.74.34a1.29,1.29,0,0,1-.59.1h0a1.34,1.34,0,0,1-.58-.17,14.88,14.88,0,0,1,14.75-17.75Zm-30.68,22.8.08-.81a1.37,1.37,0,0,1,.68-1.07,1.35,1.35,0,0,1,1.28,0l.74.35a5.18,5.18,0,0,0,6.36-1.7l.46-.67a1.43,1.43,0,0,1,2.27,0l.47.66a5.11,5.11,0,0,0,4.05,2.15H504a5.31,5.31,0,0,0,.69,0l.31-.05c.16,0,.31,0,.46-.09a4.46,4.46,0,0,0,.8-.28l.73-.34a1.35,1.35,0,0,1,1.28,0,1.37,1.37,0,0,1,.69,1.07l.07.8a5.13,5.13,0,0,0,4.65,4.65l.81.07a1.36,1.36,0,0,1,1.07.68,1.39,1.39,0,0,1,.07,1.27l-.35.74s0,.07,0,.1a5,5,0,0,0,.27,4.59.25.25,0,0,0,0,.07c.1.16.2.32.33.49l.2.25c.1.11.18.22.28.31a7.87,7.87,0,0,0,.62.53l.68.46a1.42,1.42,0,0,1,.58,1.14,1.38,1.38,0,0,1-.58,1.12l-.68.47s0,0,0,0a5.54,5.54,0,0,0-.68.59c-.08.08-.16.18-.23.26l-.32.42-.12.16H490.93c.14-.21.28-.43.4-.65l0,0a5.09,5.09,0,0,0,.37-1,2,2,0,0,0,.07-.26,5.49,5.49,0,0,0,.13-1.07h0a4.06,4.06,0,0,0-.09-.7,2.24,2.24,0,0,0-.06-.52,5,5,0,0,0-.71-1.55,5.1,5.1,0,0,0-1.32-1.42l-.66-.46a1.37,1.37,0,0,1-.46-1.7l.35-.74a5.59,5.59,0,0,0,.35-1.12,2.09,2.09,0,0,0,0-.35,5.29,5.29,0,0,0,.06-.8c0-.14,0-.27,0-.42a5.54,5.54,0,0,0-.12-.71c0-.16-.09-.3-.14-.45s-.07-.26-.12-.38-.09-.12-.13-.2a1.85,1.85,0,0,0-.13-.29,3.63,3.63,0,0,0-.34-.46c-.11-.13-.19-.27-.3-.4a5.9,5.9,0,0,0-.75-.66c-.08-.06-.14-.14-.23-.2A7.33,7.33,0,0,0,487.53,65.46Zm-21.82-3a3.7,3.7,0,0,1,.6-1.38l10.82-15.31a3.77,3.77,0,0,1,5.23-.9,3.7,3.7,0,0,1,1.53,2.42,3.74,3.74,0,0,1-.62,2.8L476,60.47l-3.5,4.93a3.77,3.77,0,0,1-5.23.91h0a3.67,3.67,0,0,1-.7-.66l-.14-.19a3.28,3.28,0,0,1-.45-.79l0-.06a3.52,3.52,0,0,1-.21-.92,2,2,0,0,1,0-.24A4.43,4.43,0,0,1,465.71,62.48ZM448.87,79.66l.66-.46a5.11,5.11,0,0,0,1.71-6.34l-.34-.74a1.36,1.36,0,0,1,.05-1.27,1.39,1.39,0,0,1,1.08-.68l.8-.07a5.15,5.15,0,0,0,4.67-4.65l.07-.8a1.37,1.37,0,0,1,.68-1.07,1.35,1.35,0,0,1,1.28,0l.74.34a5,5,0,0,0,1.69.43.43.43,0,0,0,0,.12.31.31,0,0,0,0,.1,6.29,6.29,0,0,0,.17.62c.06.24.12.49.2.72a8.23,8.23,0,0,0,.37.79c.1.18.17.37.27.53a7.36,7.36,0,0,0,.63.84c.1.11.18.24.28.35a8.42,8.42,0,0,0,1.14,1,9,9,0,0,0,1.18.65l.38.16a6.92,6.92,0,0,0,.88.28,3.69,3.69,0,0,0,.45.11,7.79,7.79,0,0,0,1,.12c.12,0,.23,0,.35,0h.1a7.34,7.34,0,0,0,1.31-.12,7.46,7.46,0,0,0,4.85-3l2.76-3.91a1.3,1.3,0,0,1,.6,1l.07.8a5.15,5.15,0,0,0,4.66,4.65l.81.07a1.58,1.58,0,0,1,.48.15,1.93,1.93,0,0,1,.21.13,1,1,0,0,1,.26.28.9.9,0,0,1,.15.19,1.56,1.56,0,0,1,.15.55v0a1.38,1.38,0,0,1-.11.63l-.35.74a4.88,4.88,0,0,0-.45,2.61v0a4.75,4.75,0,0,0,.14.84,5.17,5.17,0,0,0,2,2.86l.46.32.2.14a1.36,1.36,0,0,1,.44,1.77c0,.06-.09.09-.13.14a1.15,1.15,0,0,1-.31.35l0,0-.64.45a4.64,4.64,0,0,0-.71.62,2.15,2.15,0,0,0-.19.22c-.14.16-.27.33-.4.51s-.05.05-.06.09H450.91a5,5,0,0,0-1.38-1.44l-.66-.47a1.33,1.33,0,0,1-.58-1.12A1.36,1.36,0,0,1,448.87,79.66Zm-5.57,8.12a.67.67,0,0,1,.5-.21H546.07a.67.67,0,0,1,.5.21.73.73,0,0,1,.19.56c-1,14.6-10.21,21.83-24.77,28.76a12.47,12.47,0,0,0-5.7,5.49,9.37,9.37,0,0,0,.48,9.11.46.46,0,0,1,0,.52.48.48,0,0,1-.45.25H473.53a.5.5,0,0,1-.44-.25.53.53,0,0,1,0-.56,9.33,9.33,0,0,0,.47-9.08,12.5,12.5,0,0,0-5.7-5.48c-14.56-6.93-23.79-14.16-24.77-28.76A.77.77,0,0,1,443.3,87.78Zm49.17,35.34h16.35a1.87,1.87,0,0,0,0-3.74H492.47a1.87,1.87,0,0,0,0,3.74Zm-11.81,0H487a1.87,1.87,0,1,0,0-3.74h-6.35a1.87,1.87,0,1,0,0,3.74Zm0,5.61h28.16a1.87,1.87,0,1,0,0-3.74H480.66a1.87,1.87,0,1,0,0,3.74Zm33.56-72.42a1.93,1.93,0,0,0,1.33.55,1.89,1.89,0,0,0,1.33-.55,1.86,1.86,0,0,0,0-2.65l-5.31-5.29a1.88,1.88,0,0,0-2.65,0,1.85,1.85,0,0,0,0,2.64Zm10.63,10.58a1.85,1.85,0,0,0,1.32.55,1.88,1.88,0,0,0,1.33-3.2L522.19,59a1.88,1.88,0,0,0-2.66,2.65Zm-4-10a1.89,1.89,0,0,0,1.33-.55L527.5,51a1.87,1.87,0,0,0-2.65-2.64l-5.32,5.29a1.88,1.88,0,0,0,0,2.65A1.91,1.91,0,0,0,520.86,56.86ZM531.35,72.6a1.88,1.88,0,0,0,1.88,1.87h7.51a1.87,1.87,0,1,0,0-3.74h-7.51A1.87,1.87,0,0,0,531.35,72.6Zm-34.74.93a1.85,1.85,0,0,0,1.33-.55l2.81-2.8a1.87,1.87,0,0,0-2.64-2.65l-2.82,2.81a1.87,1.87,0,0,0,1.32,3.19Zm9,4.13a1.88,1.88,0,0,0,2.66,0,1.85,1.85,0,0,0,0-2.64l-1.88-1.87a1.88,1.88,0,0,0-2.65,0,1.85,1.85,0,0,0,0,2.64Zm-7.5-.78-1.88,1.88a1.88,1.88,0,0,0,1.33,3.2,1.89,1.89,0,0,0,1.32-.55l1.87-1.88a1.86,1.86,0,0,0,0-2.65A1.88,1.88,0,0,0,498.11,76.88ZM1605.59,376.39a3.65,3.65,0,0,0,1.05-2.61,4.58,4.58,0,0,0-.28-1.52c-6.75-18-44.29-73.33-53.68-76.69a12.07,12.07,0,0,0-4-.69c2.53-5.13,5-7.85,6.93-9.26a11,11,0,0,0,4.59-8.7v-.11a8.13,8.13,0,0,0-3.5-6.73,8.57,8.57,0,0,0-9.06-.25c-.18-.16-.37-.33-.55-.47-4.9-3.81-9.48-2.16-11.09-.86a17.47,17.47,0,0,0-7.85,11.67c-.08.39-.11.79-.15,1.17-.43-.5-.86-1-1.29-1.44-3.12-3.29-6.46-4.86-9.92-4.69-5.29.27-8.72,4.65-8.87,4.83l-.06.09c-5.26,7.71,1.11,16.36,1.38,16.73l.31.32c.17.14.36.27.53.4a15.4,15.4,0,0,0-10.28,7c-.72.88-4.92,6.56-1.55,13.17a11.66,11.66,0,0,0,1.56,2.26,10.12,10.12,0,0,0,0,6.23,7.6,7.6,0,0,0,6.64,5.09,8.6,8.6,0,0,0,8.2-4.25c1.52-2.64,4.33-5.79,9.48-8.73a12.15,12.15,0,0,0,.64,5c3.43,9.51,58.7,47.11,76.66,53.78A3.89,3.89,0,0,0,1605.59,376.39ZM1548.16,274l.32-.24v0c.88-.64,3.58-2.27,6.06-.55a4.39,4.39,0,0,1,1.88,3.71v.06a7.2,7.2,0,0,1-3,5.68c-3.56,2.59-6.73,7.21-9.48,13.73l0,0-.09.23c-.23.57-.47,1.16-.7,1.76s-.4,1-.59,1.57-.39,1.1-.58,1.67c-.27.78-.53,1.6-.78,2.41-.1.31-.21.59-.3.9-.06-.14-.11-.32-.17-.47s0-.12,0-.17c-2.13-5.84-4.2-15.83,1.84-24.49.31-.45.67-.89,1-1.32.18-.21.32-.43.51-.65A27.69,27.69,0,0,1,1548.16,274Zm-16.34,6.9a13.83,13.83,0,0,1,6.37-9.33c.29-.21,2.79-2,6.29.57l-.27.23-.46.41c-.4.36-.78.72-1.15,1.07l-.34.33a25.8,25.8,0,0,0-7.56,18.59,34.42,34.42,0,0,0,.58,6.15l-.28-.63c-.13-.29-.25-.58-.38-.88s-.28-.66-.41-1l-.32-.84q-.3-.78-.57-1.59c-.11-.34-.22-.67-.32-1s-.21-.66-.3-1-.19-.74-.29-1.11-.18-.74-.26-1.1-.2-1-.28-1.55c0-.29-.08-.57-.12-.85A21,21,0,0,1,1531.82,280.86Zm-20.9,1.43c.27-.34,2.72-3.17,6.06-3.34,2.31-.12,4.67,1.07,7,3.52a35.25,35.25,0,0,1,4,5.21c0,.25.08.5.12.74.07.52.15,1.05.25,1.56s.16.72.24,1.07.19.83.29,1.23.21.74.32,1.11.22.74.33,1.11.24.76.37,1.13l.36,1c.15.38.28.76.44,1.15s.2.49.3.75c.68,1.62,1.39,3.13,2.09,4.49l0,.06a60.63,60.63,0,0,0-7.39-3.37l-.5-.2c-.49-.18-1-.33-1.49-.5l-.81-.26c-.47-.15-1-.28-1.42-.39l-.91-.24c-.48-.12-.95-.21-1.42-.3l-1-.19c-.47-.07-.94-.14-1.42-.19-.16,0-.33-.06-.49-.07a37.65,37.65,0,0,1-4.21-2.92C1511.37,293.36,1507.55,287.32,1510.92,282.29Zm-8.1,31.78a21.53,21.53,0,0,0-1.23,1.84l0,.07c-2.39-4.77,1-8.93,1.17-9.1l.16-.2a11.63,11.63,0,0,1,8-5.44,17.72,17.72,0,0,1,4.56-.2h.17a33.42,33.42,0,0,1,8.83,2.15,27.1,27.1,0,0,0-5.51.31l-.18,0c-.4.08-.81.15-1.21.24l-.74.18c-.2.05-.41.1-.62.17s-.66.19-1,.31l-.27.09a22.34,22.34,0,0,0-7.6,4.53l-.2.18q-.51.47-1,1c-.17.16-.32.33-.48.51s-.48.51-.72.79c-.44.5-.86,1-1.28,1.59h0c-.13.15-.4.48-.76,1Zm8.59,11.14a4.83,4.83,0,0,1-4.6,2.38,3.91,3.91,0,0,1-3.44-2.6,5.7,5.7,0,0,1-.3-1.86,8.35,8.35,0,0,1,.59-2.91h0s0,0,0-.07c.13-.33.26-.64.41-.94.07-.15.15-.29.22-.44s.24-.48.38-.71l.15-.25a17.08,17.08,0,0,1,1.52-2.16l.1-.12a1.1,1.1,0,0,0,.11-.14,25.49,25.49,0,0,1,1.92-2.27c.19-.2.38-.36.58-.55a17.24,17.24,0,0,1,1.5-1.35,8.17,8.17,0,0,1,.69-.51,16.24,16.24,0,0,1,1.58-1.07l.65-.37a19.28,19.28,0,0,1,2-.94l.32-.13a22.9,22.9,0,0,1,12-.87,37.44,37.44,0,0,1,8,2.34c-1.13.32-2.21.65-3.26,1l-.51.17c-.95.31-1.87.64-2.74,1-.15.06-.31.11-.45.18C1518.67,316,1513.75,321.14,1511.41,325.21ZM1589,358.86a1.87,1.87,0,0,0-2.5.88,22.31,22.31,0,0,1-2.2,3.64,2.11,2.11,0,0,0-.27.59c-7.35-4.38-15.41-9.64-23.1-15a10.84,10.84,0,0,0,5-3.65,1.81,1.81,0,0,0,.35-1.08,1.83,1.83,0,0,0-.8-1.52,1.87,1.87,0,0,0-2.61.44,8.35,8.35,0,0,1-5.63,2.9c-.1,0-.19.07-.29.09-5.84-4.14-11.31-8.22-15.87-11.86a15.88,15.88,0,0,0,8.58-5.62,1.83,1.83,0,0,0,.35-1.08,1.88,1.88,0,0,0-3.41-1.09c-2,2.78-5.94,4.36-9,4.69l-.22.07c-5-4.21-8.4-7.55-9-9.2a8.4,8.4,0,0,1-.5-2.86,10.82,10.82,0,0,1,.44-2.95,63.25,63.25,0,0,1,6-2.27l.43-.12c.91-.29,1.86-.55,2.81-.82l.64-.17c1.15-.29,2.31-.58,3.51-.84l.22-.08.22-.08.07,0c.06,0,.1-.08.16-.11l0,0a1.4,1.4,0,0,0,.18-.13l0,0h0a1.41,1.41,0,0,0,.14-.18l0,0a.79.79,0,0,0,.12-.15l0-.06.07-.14a.65.65,0,0,1,0-.13l.08-.16c.27-1.08.55-2.12.84-3.15.07-.24.14-.44.2-.67.24-.81.47-1.59.72-2.36l.18-.58c.26-.79.52-1.58.8-2.33l.14-.39c.31-.86.62-1.71,1-2.51h0a8.93,8.93,0,0,1,4.44.38c2.82,1,8.95,8,16.07,17.53a1.89,1.89,0,0,0-.17.49c-.33,3.06-1.91,7-4.7,9a1.87,1.87,0,0,0,2.16,3.06,15.82,15.82,0,0,0,5.65-8.54c4.33,5.95,8.87,12.58,13.18,19.18a1.8,1.8,0,0,0-.47,1,8.3,8.3,0,0,1-2.91,5.61,1.87,1.87,0,0,0-.46,2.61,1.91,1.91,0,0,0,2.63.45,11.09,11.09,0,0,0,3.86-5.59c7.74,12.12,14.29,23.57,16.59,29.71,0,0,0,.08,0,.11l-.11,0a113,113,0,0,1-15.68-7.86,1.81,1.81,0,0,0,.21-.18,26.79,26.79,0,0,0,2.56-4.25,1.87,1.87,0,0,0-.89-2.49Zm-35.81-58.07a1.89,1.89,0,0,0-2.43,1.09,26.48,26.48,0,0,1-7.82,10.55,1.87,1.87,0,1,0,2.43,2.85,30.16,30.16,0,0,0,8.9-12.07,2,2,0,0,0,.13-.67A1.89,1.89,0,0,0,1553.16,300.79ZM82.15,197.44a12,12,0,0,0,.69-4c5.15,2.51,7.87,5,9.29,6.89a11,11,0,0,0,8.73,4.58H101a8.22,8.22,0,0,0,6.76-3.48,8.54,8.54,0,0,0,.25-9c.16-.18.33-.36.46-.54,3.83-4.88,2.18-9.45.86-11.05A17.51,17.51,0,0,0,97.6,173c-.39-.07-.79-.1-1.18-.15.51-.43,1-.85,1.45-1.28,3.3-3.11,4.88-6.44,4.71-9.88-.28-5.28-4.67-8.7-4.85-8.85l-.1-.06c-7.72-5.23-16.41,1.11-16.77,1.38l-.33.31c-.14.17-.27.36-.41.53a15.31,15.31,0,0,0-7-10.25c-.89-.71-6.58-4.91-13.22-1.54a11.39,11.39,0,0,0-2.27,1.55,10.19,10.19,0,0,0-6.25,0,7.56,7.56,0,0,0-5.11,6.61,8.56,8.56,0,0,0,4.27,8.17c2.65,1.51,5.81,4.31,8.75,9.45a12.19,12.19,0,0,0-5,.64C44.71,173.06,7,228.15.29,246a3.84,3.84,0,0,0,.76,4.13,3.68,3.68,0,0,0,2.61,1,4.39,4.39,0,0,0,1.53-.28C23.27,244.21,78.77,206.79,82.15,197.44Zm22.49,1.86a4.39,4.39,0,0,1-3.71,1.88h-.07a7.24,7.24,0,0,1-5.7-3.05c-2.59-3.54-7.23-6.7-13.78-9.44l0,0-.23-.09-1.76-.7-1.58-.58c-.56-.21-1.1-.4-1.67-.59l-2.42-.77c-.31-.11-.6-.21-.91-.3l.48-.17s.12,0,.17,0c5.86-2.13,15.88-4.18,24.57,1.83.45.31.89.67,1.33,1,.21.18.43.32.64.51a27.68,27.68,0,0,1,3.86,4.14l.24.31s0,0,0,0C104.73,194.14,106.37,196.83,104.64,199.3Zm-7.73-22.65a13.9,13.9,0,0,1,9.36,6.35c.21.29,2,2.78-.57,6.27a2.91,2.91,0,0,0-.24-.27c-.13-.16-.27-.31-.41-.46-.36-.4-.71-.78-1.07-1.14l-.33-.34A26,26,0,0,0,85,179.52a34.83,34.83,0,0,0-6.17.58l.63-.28.89-.38,1-.4.85-.33c.52-.19,1-.39,1.59-.56.34-.11.67-.23,1-.33l1-.29,1.12-.29L88,177c.51-.11,1-.2,1.56-.28l.84-.12A21.49,21.49,0,0,1,96.91,176.65Zm-18.7-6.56c.17-.48.33-1,.49-1.48l.27-.81c.14-.47.27-.94.39-1.42q.14-.45.24-.9c.12-.48.21-.95.3-1.42.07-.32.13-.63.19-.95s.13-.93.19-1.4c0-.17,0-.33.07-.5A38.68,38.68,0,0,1,83.28,157c1.09-.75,7.15-4.55,12.19-1.2.34.28,3.18,2.72,3.35,6,.12,2.3-1.07,4.65-3.53,7a34.92,34.92,0,0,1-5.23,4c-.25,0-.49.09-.74.12-.52.08-1.06.16-1.57.26l-1.07.23c-.41.1-.83.19-1.23.3s-.74.2-1.12.31l-1.11.33-1.13.37-1,.36c-.38.14-.76.28-1.15.44l-.75.3c-1.63.67-3.15,1.38-4.51,2.07l-.06,0A60,60,0,0,0,78,170.6C78.07,170.42,78.14,170.26,78.21,170.09ZM70.8,147.66a1.56,1.56,0,0,0,.2.16,11.64,11.64,0,0,1,5.46,7.94,17.54,17.54,0,0,1,.2,4.54v.16a33.3,33.3,0,0,1-2.16,8.81,26.33,26.33,0,0,0-.32-5.5,1.11,1.11,0,0,1,0-.17c-.08-.4-.15-.81-.24-1.21-.06-.24-.12-.49-.19-.74s-.1-.41-.16-.61-.19-.67-.31-1l-.1-.27a22.11,22.11,0,0,0-4.54-7.57l-.18-.21c-.31-.34-.63-.66-1-1-.15-.17-.33-.32-.5-.48s-.52-.48-.8-.71c-.5-.44-1-.86-1.6-1.28v0c-.15-.14-.48-.4-1-.76h0a20.54,20.54,0,0,0-1.85-1.22l-.06,0C66.45,144.12,70.63,147.53,70.8,147.66Zm-18.39,8.65A4.8,4.8,0,0,1,50,151.73a3.88,3.88,0,0,1,2.61-3.43,5.62,5.62,0,0,1,1.86-.3,8.4,8.4,0,0,1,2.92.59h0l.08,0,.94.4.43.22c.25.13.49.25.72.39a2.07,2.07,0,0,1,.25.15A18.43,18.43,0,0,1,62,151.28l.12.1a1.1,1.1,0,0,0,.14.11,25.3,25.3,0,0,1,2.28,1.91c.2.19.35.38.54.57a19,19,0,0,1,1.36,1.5,8.31,8.31,0,0,1,.52.69A18.26,18.26,0,0,1,68,157.74l.37.65a17.3,17.3,0,0,1,.94,2c0,.11.09.21.14.32a22.72,22.72,0,0,1,.87,11.93,36.63,36.63,0,0,1-2.36,8c-.32-1.13-.65-2.21-1-3.25,0-.17-.11-.34-.17-.51-.31-.95-.64-1.87-1-2.73-.06-.15-.11-.3-.18-.45C61.64,163.54,56.49,158.64,52.41,156.31ZM61,212.19a2.11,2.11,0,0,0-.5-.17c-3.07-.33-7-1.91-9-4.69a1.89,1.89,0,0,0-2.62-.45,1.87,1.87,0,0,0-.45,2.61A16,16,0,0,0,57,215.12c-6,4.31-12.63,8.84-19.25,13.14a1.81,1.81,0,0,0-1-.48,8.38,8.38,0,0,1-5.63-2.89A1.87,1.87,0,1,0,28.08,227a11.16,11.16,0,0,0,5.61,3.86C21.53,238.61,10,245.13,3.88,247.42l-.11,0a.49.49,0,0,1,0-.11,112.19,112.19,0,0,1,7.88-15.62,1.9,1.9,0,0,0,.19.21,27.12,27.12,0,0,0,4.26,2.55,1.88,1.88,0,0,0,2.5-.89,1.86,1.86,0,0,0-.89-2.49,23.52,23.52,0,0,1-3.65-2.19,2.11,2.11,0,0,0-.59-.27c4.4-7.32,9.67-15.36,15-23a10.69,10.69,0,0,0,3.66,5,1.86,1.86,0,0,0,2.61-.44,1.86,1.86,0,0,0-.44-2.61,8.26,8.26,0,0,1-2.91-5.61c0-.1-.07-.19-.09-.29,4.15-5.82,8.25-11.26,11.9-15.81a15.84,15.84,0,0,0,5.65,8.55,1.87,1.87,0,0,0,1.08.34,1.89,1.89,0,0,0,1.54-.79,1.87,1.87,0,0,0-.45-2.6c-2.79-2-4.37-5.92-4.7-9,0-.08-.06-.14-.08-.22,4.23-5,7.57-8.36,9.23-9a8.49,8.49,0,0,1,2.87-.49,11,11,0,0,1,3,.44,61.82,61.82,0,0,1,2.27,6c0,.14.08.28.13.42.28.91.55,1.85.81,2.8l.18.64c.29,1.15.57,2.31.84,3.5,0,.07.06.15.08.22s0,.16.08.22,0,.05,0,.06.08.1.11.16l0,0,.13.18,0,0h0a.62.62,0,0,0,.18.14l0,0,.14.12.07,0,.13.07.13,0,.17.08q1.62.4,3.15.84l.68.2c.81.24,1.6.46,2.36.71l.58.18c.8.27,1.59.53,2.34.8l.39.14c.87.31,1.72.62,2.53.95h0a8.89,8.89,0,0,1-.38,4.43C77.6,199,70.54,205.1,61,212.19Zm14.78-16.7a26.57,26.57,0,0,1-10.59-7.79,1.87,1.87,0,1,0-2.85,2.43A30.26,30.26,0,0,0,74.48,199a1.74,1.74,0,0,0,.67.13,1.9,1.9,0,0,0,1.76-1.21A1.88,1.88,0,0,0,75.81,195.49Z"/></g></g></svg>