<svg xmlns="http://www.w3.org/2000/svg" viewBox="0 0 104.52 104"><defs><style>.cls-1{fill:#37545a;}</style></defs><title>pin</title><g id="Layer_2" data-name="Layer 2"><g id="Layer_1-2" data-name="Layer 1"><path class="cls-1" d="M79.64,27.38a27.39,27.39,0,0,0-54.77,0c0,21.67,27.39,53.72,27.39,53.72S79.64,48.93,79.64,27.38ZM38.76,25.74a13.5,13.5,0,1,1,13.5,13.51,13.49,13.49,0,0,1-13.5-13.51Z"/><path class="cls-1" d="M58.89,25.74a6.64,6.64,0,1,1-6.63-6.64,6.64,6.64,0,0,1,6.63,6.64Z"/><path class="cls-1" d="M67.74,71.57c-2.24,3.22-4.33,6-6.07,8.29,17.29,1,28.64,4.77,32.85,7.56-4.94,3.25-19.62,7.84-42.26,7.84S14.94,90.67,10,87.42c4.21-2.78,15.55-6.51,32.82-7.56-1.74-2.25-3.84-5.06-6.07-8.28C15.46,73.67,0,80,0,87.42,0,96.57,23.4,104,52.26,104s52.26-7.43,52.26-16.58C104.52,80,89,73.67,67.74,71.57Z"/></g></g></svg>